<?xml version="1.0" encoding="UTF-8"?>
<!DOCTYPE xmeml>
<xmeml version="4">
	<project>
		<name>PP Tutorial Lesson 05 fcp</name>
		<children>
			<bin>
				<name>Stills</name>
				<labels>
					<label2>Mango</label2>
				</labels>
				<children>
					<bin>
						<name>Eagle_Photos</name>
						<labels>
							<label2>Mango</label2>
						</labels>
						<children>
							<clip id="masterclip-2393" explodedTracks="true">
								<uuid>7d6f5054-f92f-4abe-951b-a40f3164cc84</uuid>
								<masterclipid>masterclip-2393</masterclipid>
								<ismasterclip>TRUE</ismasterclip>
								<duration>150</duration>
								<rate>
									<timebase>30</timebase>
									<ntsc>TRUE</ntsc>
								</rate>
								<in>0</in>
								<out>149</out>
								<name>Eagle_001.png</name>
								<media>
									<video>
										<track>
											<clipitem id="clipitem-27986">
												<masterclipid>masterclip-2393</masterclipid>
												<name>Eagle_001.png</name>
												<rate>
													<timebase>30</timebase>
													<ntsc>TRUE</ntsc>
												</rate>
												<alphatype>straight</alphatype>
												<pixelaspectratio>square</pixelaspectratio>
												<anamorphic>FALSE</anamorphic>
												<file id="file-2391">
													<name>Eagle_001.png</name>
													<pathurl>file://localhost/Users/fgiraffe/Premiere%20Pro%20Tuts/Lessons/Assets/Stills/Eagle_Photos/Eagle_001.png</pathurl>
													<rate>
														<timebase>30</timebase>
														<ntsc>TRUE</ntsc>
													</rate>
													<timecode>
														<rate>
															<timebase>30</timebase>
															<ntsc>TRUE</ntsc>
														</rate>
														<string>00:00:00:00</string>
														<frame>0</frame>
														<displayformat>NDF</displayformat>
													</timecode>
													<media>
														<video>
															<samplecharacteristics>
																<rate>
																	<timebase>30</timebase>
																	<ntsc>TRUE</ntsc>
																</rate>
																<width>1280</width>
																<height>720</height>
																<anamorphic>FALSE</anamorphic>
																<pixelaspectratio>square</pixelaspectratio>
																<fielddominance>none</fielddominance>
															</samplecharacteristics>
														</video>
													</media>
												</file>
											</clipitem>
										</track>
									</video>
								</media>
								<logginginfo>
									<description></description>
									<scene></scene>
									<shottake></shottake>
									<lognote></lognote>
								</logginginfo>
								<labels>
									<label2>Lavender</label2>
								</labels>
							</clip>
							<clip id="masterclip-2394" explodedTracks="true">
								<uuid>830d469b-6dd6-416f-ace1-9e0cd79f309a</uuid>
								<masterclipid>masterclip-2394</masterclipid>
								<ismasterclip>TRUE</ismasterclip>
								<duration>150</duration>
								<rate>
									<timebase>30</timebase>
									<ntsc>TRUE</ntsc>
								</rate>
								<in>0</in>
								<out>149</out>
								<name>Eagle_002.png</name>
								<media>
									<video>
										<track>
											<clipitem id="clipitem-27987">
												<masterclipid>masterclip-2394</masterclipid>
												<name>Eagle_002.png</name>
												<rate>
													<timebase>30</timebase>
													<ntsc>TRUE</ntsc>
												</rate>
												<alphatype>straight</alphatype>
												<pixelaspectratio>square</pixelaspectratio>
												<anamorphic>FALSE</anamorphic>
												<file id="file-2392">
													<name>Eagle_002.png</name>
													<pathurl>file://localhost/Users/fgiraffe/Premiere%20Pro%20Tuts/Lessons/Assets/Stills/Eagle_Photos/Eagle_002.png</pathurl>
													<rate>
														<timebase>30</timebase>
														<ntsc>TRUE</ntsc>
													</rate>
													<timecode>
														<rate>
															<timebase>30</timebase>
															<ntsc>TRUE</ntsc>
														</rate>
														<string>00:00:00:00</string>
														<frame>0</frame>
														<displayformat>NDF</displayformat>
													</timecode>
													<media>
														<video>
															<samplecharacteristics>
																<rate>
																	<timebase>30</timebase>
																	<ntsc>TRUE</ntsc>
																</rate>
																<width>1280</width>
																<height>720</height>
																<anamorphic>FALSE</anamorphic>
																<pixelaspectratio>square</pixelaspectratio>
																<fielddominance>none</fielddominance>
															</samplecharacteristics>
														</video>
													</media>
												</file>
											</clipitem>
										</track>
									</video>
								</media>
								<logginginfo>
									<description></description>
									<scene></scene>
									<shottake></shottake>
									<lognote></lognote>
								</logginginfo>
								<labels>
									<label2>Lavender</label2>
								</labels>
							</clip>
							<clip id="masterclip-2395" explodedTracks="true">
								<uuid>21a04264-d25f-4281-a5e6-d20db0452284</uuid>
								<masterclipid>masterclip-2395</masterclipid>
								<ismasterclip>TRUE</ismasterclip>
								<duration>150</duration>
								<rate>
									<timebase>30</timebase>
									<ntsc>TRUE</ntsc>
								</rate>
								<in>0</in>
								<out>149</out>
								<name>Eagle_003.png</name>
								<media>
									<video>
										<track>
											<clipitem id="clipitem-27988">
												<masterclipid>masterclip-2395</masterclipid>
												<name>Eagle_003.png</name>
												<rate>
													<timebase>30</timebase>
													<ntsc>TRUE</ntsc>
												</rate>
												<alphatype>straight</alphatype>
												<pixelaspectratio>square</pixelaspectratio>
												<anamorphic>FALSE</anamorphic>
												<file id="file-2393">
													<name>Eagle_003.png</name>
													<pathurl>file://localhost/Users/fgiraffe/Premiere%20Pro%20Tuts/Lessons/Assets/Stills/Eagle_Photos/Eagle_003.png</pathurl>
													<rate>
														<timebase>30</timebase>
														<ntsc>TRUE</ntsc>
													</rate>
													<timecode>
														<rate>
															<timebase>30</timebase>
															<ntsc>TRUE</ntsc>
														</rate>
														<string>00:00:00:00</string>
														<frame>0</frame>
														<displayformat>NDF</displayformat>
													</timecode>
													<media>
														<video>
															<samplecharacteristics>
																<rate>
																	<timebase>30</timebase>
																	<ntsc>TRUE</ntsc>
																</rate>
																<width>1280</width>
																<height>720</height>
																<anamorphic>FALSE</anamorphic>
																<pixelaspectratio>square</pixelaspectratio>
																<fielddominance>none</fielddominance>
															</samplecharacteristics>
														</video>
													</media>
												</file>
											</clipitem>
										</track>
									</video>
								</media>
								<logginginfo>
									<description></description>
									<scene></scene>
									<shottake></shottake>
									<lognote></lognote>
								</logginginfo>
								<labels>
									<label2>Lavender</label2>
								</labels>
							</clip>
							<clip id="masterclip-2396" explodedTracks="true">
								<uuid>e817a5e2-730c-4133-b1fa-b00db8b925e6</uuid>
								<masterclipid>masterclip-2396</masterclipid>
								<ismasterclip>TRUE</ismasterclip>
								<duration>150</duration>
								<rate>
									<timebase>30</timebase>
									<ntsc>TRUE</ntsc>
								</rate>
								<in>0</in>
								<out>149</out>
								<name>Eagle_004.png</name>
								<media>
									<video>
										<track>
											<clipitem id="clipitem-27989">
												<masterclipid>masterclip-2396</masterclipid>
												<name>Eagle_004.png</name>
												<rate>
													<timebase>30</timebase>
													<ntsc>TRUE</ntsc>
												</rate>
												<alphatype>straight</alphatype>
												<pixelaspectratio>square</pixelaspectratio>
												<anamorphic>FALSE</anamorphic>
												<file id="file-2394">
													<name>Eagle_004.png</name>
													<pathurl>file://localhost/Users/fgiraffe/Premiere%20Pro%20Tuts/Lessons/Assets/Stills/Eagle_Photos/Eagle_004.png</pathurl>
													<rate>
														<timebase>30</timebase>
														<ntsc>TRUE</ntsc>
													</rate>
													<timecode>
														<rate>
															<timebase>30</timebase>
															<ntsc>TRUE</ntsc>
														</rate>
														<string>00:00:00:00</string>
														<frame>0</frame>
														<displayformat>NDF</displayformat>
													</timecode>
													<media>
														<video>
															<samplecharacteristics>
																<rate>
																	<timebase>30</timebase>
																	<ntsc>TRUE</ntsc>
																</rate>
																<width>1280</width>
																<height>720</height>
																<anamorphic>FALSE</anamorphic>
																<pixelaspectratio>square</pixelaspectratio>
																<fielddominance>none</fielddominance>
															</samplecharacteristics>
														</video>
													</media>
												</file>
											</clipitem>
										</track>
									</video>
								</media>
								<logginginfo>
									<description></description>
									<scene></scene>
									<shottake></shottake>
									<lognote></lognote>
								</logginginfo>
								<labels>
									<label2>Lavender</label2>
								</labels>
							</clip>
							<clip id="masterclip-2397" explodedTracks="true">
								<uuid>c6d0ec74-9dd0-458a-9120-585db4781c78</uuid>
								<masterclipid>masterclip-2397</masterclipid>
								<ismasterclip>TRUE</ismasterclip>
								<duration>150</duration>
								<rate>
									<timebase>30</timebase>
									<ntsc>TRUE</ntsc>
								</rate>
								<in>0</in>
								<out>149</out>
								<name>Eagle_005.png</name>
								<media>
									<video>
										<track>
											<clipitem id="clipitem-27990">
												<masterclipid>masterclip-2397</masterclipid>
												<name>Eagle_005.png</name>
												<rate>
													<timebase>30</timebase>
													<ntsc>TRUE</ntsc>
												</rate>
												<alphatype>straight</alphatype>
												<pixelaspectratio>square</pixelaspectratio>
												<anamorphic>FALSE</anamorphic>
												<file id="file-2395">
													<name>Eagle_005.png</name>
													<pathurl>file://localhost/Users/fgiraffe/Premiere%20Pro%20Tuts/Lessons/Assets/Stills/Eagle_Photos/Eagle_005.png</pathurl>
													<rate>
														<timebase>30</timebase>
														<ntsc>TRUE</ntsc>
													</rate>
													<timecode>
														<rate>
															<timebase>30</timebase>
															<ntsc>TRUE</ntsc>
														</rate>
														<string>00:00:00:00</string>
														<frame>0</frame>
														<displayformat>NDF</displayformat>
													</timecode>
													<media>
														<video>
															<samplecharacteristics>
																<rate>
																	<timebase>30</timebase>
																	<ntsc>TRUE</ntsc>
																</rate>
																<width>1280</width>
																<height>720</height>
																<anamorphic>FALSE</anamorphic>
																<pixelaspectratio>square</pixelaspectratio>
																<fielddominance>none</fielddominance>
															</samplecharacteristics>
														</video>
													</media>
												</file>
											</clipitem>
										</track>
									</video>
								</media>
								<logginginfo>
									<description></description>
									<scene></scene>
									<shottake></shottake>
									<lognote></lognote>
								</logginginfo>
								<labels>
									<label2>Lavender</label2>
								</labels>
							</clip>
							<clip id="masterclip-2398" explodedTracks="true">
								<uuid>01fbf16e-71c5-4a13-8e3f-09994b9761fa</uuid>
								<masterclipid>masterclip-2398</masterclipid>
								<ismasterclip>TRUE</ismasterclip>
								<duration>150</duration>
								<rate>
									<timebase>30</timebase>
									<ntsc>TRUE</ntsc>
								</rate>
								<in>0</in>
								<out>149</out>
								<name>Eagle_006.png</name>
								<media>
									<video>
										<track>
											<clipitem id="clipitem-27991">
												<masterclipid>masterclip-2398</masterclipid>
												<name>Eagle_006.png</name>
												<rate>
													<timebase>30</timebase>
													<ntsc>TRUE</ntsc>
												</rate>
												<alphatype>straight</alphatype>
												<pixelaspectratio>square</pixelaspectratio>
												<anamorphic>FALSE</anamorphic>
												<file id="file-2396">
													<name>Eagle_006.png</name>
													<pathurl>file://localhost/Users/fgiraffe/Premiere%20Pro%20Tuts/Lessons/Assets/Stills/Eagle_Photos/Eagle_006.png</pathurl>
													<rate>
														<timebase>30</timebase>
														<ntsc>TRUE</ntsc>
													</rate>
													<timecode>
														<rate>
															<timebase>30</timebase>
															<ntsc>TRUE</ntsc>
														</rate>
														<string>00:00:00:00</string>
														<frame>0</frame>
														<displayformat>NDF</displayformat>
													</timecode>
													<media>
														<video>
															<samplecharacteristics>
																<rate>
																	<timebase>30</timebase>
																	<ntsc>TRUE</ntsc>
																</rate>
																<width>1280</width>
																<height>720</height>
																<anamorphic>FALSE</anamorphic>
																<pixelaspectratio>square</pixelaspectratio>
																<fielddominance>none</fielddominance>
															</samplecharacteristics>
														</video>
													</media>
												</file>
											</clipitem>
										</track>
									</video>
								</media>
								<logginginfo>
									<description></description>
									<scene></scene>
									<shottake></shottake>
									<lognote></lognote>
								</logginginfo>
								<labels>
									<label2>Lavender</label2>
								</labels>
							</clip>
							<clip id="masterclip-2399" explodedTracks="true">
								<uuid>9b259893-b09f-4d65-a4af-3754aa17f1bd</uuid>
								<masterclipid>masterclip-2399</masterclipid>
								<ismasterclip>TRUE</ismasterclip>
								<duration>150</duration>
								<rate>
									<timebase>30</timebase>
									<ntsc>TRUE</ntsc>
								</rate>
								<in>0</in>
								<out>149</out>
								<name>Eagle_007.png</name>
								<media>
									<video>
										<track>
											<clipitem id="clipitem-27992">
												<masterclipid>masterclip-2399</masterclipid>
												<name>Eagle_007.png</name>
												<rate>
													<timebase>30</timebase>
													<ntsc>TRUE</ntsc>
												</rate>
												<alphatype>straight</alphatype>
												<pixelaspectratio>square</pixelaspectratio>
												<anamorphic>FALSE</anamorphic>
												<file id="file-2397">
													<name>Eagle_007.png</name>
													<pathurl>file://localhost/Users/fgiraffe/Premiere%20Pro%20Tuts/Lessons/Assets/Stills/Eagle_Photos/Eagle_007.png</pathurl>
													<rate>
														<timebase>30</timebase>
														<ntsc>TRUE</ntsc>
													</rate>
													<timecode>
														<rate>
															<timebase>30</timebase>
															<ntsc>TRUE</ntsc>
														</rate>
														<string>00:00:00:00</string>
														<frame>0</frame>
														<displayformat>NDF</displayformat>
													</timecode>
													<media>
														<video>
															<samplecharacteristics>
																<rate>
																	<timebase>30</timebase>
																	<ntsc>TRUE</ntsc>
																</rate>
																<width>1280</width>
																<height>720</height>
																<anamorphic>FALSE</anamorphic>
																<pixelaspectratio>square</pixelaspectratio>
																<fielddominance>none</fielddominance>
															</samplecharacteristics>
														</video>
													</media>
												</file>
											</clipitem>
										</track>
									</video>
								</media>
								<logginginfo>
									<description></description>
									<scene></scene>
									<shottake></shottake>
									<lognote></lognote>
								</logginginfo>
								<labels>
									<label2>Lavender</label2>
								</labels>
							</clip>
							<clip id="masterclip-2400" explodedTracks="true">
								<uuid>1604ec05-8814-455b-93de-7cea59399606</uuid>
								<masterclipid>masterclip-2400</masterclipid>
								<ismasterclip>TRUE</ismasterclip>
								<duration>150</duration>
								<rate>
									<timebase>30</timebase>
									<ntsc>TRUE</ntsc>
								</rate>
								<in>0</in>
								<out>149</out>
								<name>Eagle_008.png</name>
								<media>
									<video>
										<track>
											<clipitem id="clipitem-27993">
												<masterclipid>masterclip-2400</masterclipid>
												<name>Eagle_008.png</name>
												<rate>
													<timebase>30</timebase>
													<ntsc>TRUE</ntsc>
												</rate>
												<alphatype>straight</alphatype>
												<pixelaspectratio>square</pixelaspectratio>
												<anamorphic>FALSE</anamorphic>
												<file id="file-2398">
													<name>Eagle_008.png</name>
													<pathurl>file://localhost/Users/fgiraffe/Premiere%20Pro%20Tuts/Lessons/Assets/Stills/Eagle_Photos/Eagle_008.png</pathurl>
													<rate>
														<timebase>30</timebase>
														<ntsc>TRUE</ntsc>
													</rate>
													<timecode>
														<rate>
															<timebase>30</timebase>
															<ntsc>TRUE</ntsc>
														</rate>
														<string>00:00:00:00</string>
														<frame>0</frame>
														<displayformat>NDF</displayformat>
													</timecode>
													<media>
														<video>
															<samplecharacteristics>
																<rate>
																	<timebase>30</timebase>
																	<ntsc>TRUE</ntsc>
																</rate>
																<width>1280</width>
																<height>720</height>
																<anamorphic>FALSE</anamorphic>
																<pixelaspectratio>square</pixelaspectratio>
																<fielddominance>none</fielddominance>
															</samplecharacteristics>
														</video>
													</media>
												</file>
											</clipitem>
										</track>
									</video>
								</media>
								<logginginfo>
									<description></description>
									<scene></scene>
									<shottake></shottake>
									<lognote></lognote>
								</logginginfo>
								<labels>
									<label2>Lavender</label2>
								</labels>
							</clip>
							<clip id="masterclip-2401" explodedTracks="true">
								<uuid>d0a22d6c-0b21-430a-ba99-069fc7a57b1a</uuid>
								<masterclipid>masterclip-2401</masterclipid>
								<ismasterclip>TRUE</ismasterclip>
								<duration>150</duration>
								<rate>
									<timebase>30</timebase>
									<ntsc>TRUE</ntsc>
								</rate>
								<in>0</in>
								<out>149</out>
								<name>Eagle_009.png</name>
								<media>
									<video>
										<track>
											<clipitem id="clipitem-27994">
												<masterclipid>masterclip-2401</masterclipid>
												<name>Eagle_009.png</name>
												<rate>
													<timebase>30</timebase>
													<ntsc>TRUE</ntsc>
												</rate>
												<alphatype>straight</alphatype>
												<pixelaspectratio>square</pixelaspectratio>
												<anamorphic>FALSE</anamorphic>
												<file id="file-2399">
													<name>Eagle_009.png</name>
													<pathurl>file://localhost/Users/fgiraffe/Premiere%20Pro%20Tuts/Lessons/Assets/Stills/Eagle_Photos/Eagle_009.png</pathurl>
													<rate>
														<timebase>30</timebase>
														<ntsc>TRUE</ntsc>
													</rate>
													<timecode>
														<rate>
															<timebase>30</timebase>
															<ntsc>TRUE</ntsc>
														</rate>
														<string>00:00:00:00</string>
														<frame>0</frame>
														<displayformat>NDF</displayformat>
													</timecode>
													<media>
														<video>
															<samplecharacteristics>
																<rate>
																	<timebase>30</timebase>
																	<ntsc>TRUE</ntsc>
																</rate>
																<width>1280</width>
																<height>720</height>
																<anamorphic>FALSE</anamorphic>
																<pixelaspectratio>square</pixelaspectratio>
																<fielddominance>none</fielddominance>
															</samplecharacteristics>
														</video>
													</media>
												</file>
											</clipitem>
										</track>
									</video>
								</media>
								<logginginfo>
									<description></description>
									<scene></scene>
									<shottake></shottake>
									<lognote></lognote>
								</logginginfo>
								<labels>
									<label2>Lavender</label2>
								</labels>
							</clip>
							<clip id="masterclip-2402" explodedTracks="true">
								<uuid>2e6b9d2a-ce72-4fce-b734-ff0414f6d31b</uuid>
								<masterclipid>masterclip-2402</masterclipid>
								<ismasterclip>TRUE</ismasterclip>
								<duration>150</duration>
								<rate>
									<timebase>30</timebase>
									<ntsc>TRUE</ntsc>
								</rate>
								<in>0</in>
								<out>149</out>
								<name>Eagle_010.png</name>
								<media>
									<video>
										<track>
											<clipitem id="clipitem-27995">
												<masterclipid>masterclip-2402</masterclipid>
												<name>Eagle_010.png</name>
												<rate>
													<timebase>30</timebase>
													<ntsc>TRUE</ntsc>
												</rate>
												<alphatype>straight</alphatype>
												<pixelaspectratio>square</pixelaspectratio>
												<anamorphic>FALSE</anamorphic>
												<file id="file-2400">
													<name>Eagle_010.png</name>
													<pathurl>file://localhost/Users/fgiraffe/Premiere%20Pro%20Tuts/Lessons/Assets/Stills/Eagle_Photos/Eagle_010.png</pathurl>
													<rate>
														<timebase>30</timebase>
														<ntsc>TRUE</ntsc>
													</rate>
													<timecode>
														<rate>
															<timebase>30</timebase>
															<ntsc>TRUE</ntsc>
														</rate>
														<string>00:00:00:00</string>
														<frame>0</frame>
														<displayformat>NDF</displayformat>
													</timecode>
													<media>
														<video>
															<samplecharacteristics>
																<rate>
																	<timebase>30</timebase>
																	<ntsc>TRUE</ntsc>
																</rate>
																<width>1280</width>
																<height>720</height>
																<anamorphic>FALSE</anamorphic>
																<pixelaspectratio>square</pixelaspectratio>
																<fielddominance>none</fielddominance>
															</samplecharacteristics>
														</video>
													</media>
												</file>
											</clipitem>
										</track>
									</video>
								</media>
								<logginginfo>
									<description></description>
									<scene></scene>
									<shottake></shottake>
									<lognote></lognote>
								</logginginfo>
								<labels>
									<label2>Lavender</label2>
								</labels>
							</clip>
							<clip id="masterclip-2403" explodedTracks="true">
								<uuid>5fc9b53c-a9a1-4ad2-b6f2-f960f14cce44</uuid>
								<masterclipid>masterclip-2403</masterclipid>
								<ismasterclip>TRUE</ismasterclip>
								<duration>150</duration>
								<rate>
									<timebase>30</timebase>
									<ntsc>TRUE</ntsc>
								</rate>
								<in>0</in>
								<out>149</out>
								<name>Eagle_011.png</name>
								<media>
									<video>
										<track>
											<clipitem id="clipitem-27996">
												<masterclipid>masterclip-2403</masterclipid>
												<name>Eagle_011.png</name>
												<rate>
													<timebase>30</timebase>
													<ntsc>TRUE</ntsc>
												</rate>
												<alphatype>straight</alphatype>
												<pixelaspectratio>square</pixelaspectratio>
												<anamorphic>FALSE</anamorphic>
												<file id="file-2401">
													<name>Eagle_011.png</name>
													<pathurl>file://localhost/Users/fgiraffe/Premiere%20Pro%20Tuts/Lessons/Assets/Stills/Eagle_Photos/Eagle_011.png</pathurl>
													<rate>
														<timebase>30</timebase>
														<ntsc>TRUE</ntsc>
													</rate>
													<timecode>
														<rate>
															<timebase>30</timebase>
															<ntsc>TRUE</ntsc>
														</rate>
														<string>00:00:00:00</string>
														<frame>0</frame>
														<displayformat>NDF</displayformat>
													</timecode>
													<media>
														<video>
															<samplecharacteristics>
																<rate>
																	<timebase>30</timebase>
																	<ntsc>TRUE</ntsc>
																</rate>
																<width>1280</width>
																<height>720</height>
																<anamorphic>FALSE</anamorphic>
																<pixelaspectratio>square</pixelaspectratio>
																<fielddominance>none</fielddominance>
															</samplecharacteristics>
														</video>
													</media>
												</file>
											</clipitem>
										</track>
									</video>
								</media>
								<logginginfo>
									<description></description>
									<scene></scene>
									<shottake></shottake>
									<lognote></lognote>
								</logginginfo>
								<labels>
									<label2>Lavender</label2>
								</labels>
							</clip>
							<clip id="masterclip-2404" explodedTracks="true">
								<uuid>2f5ce181-d282-474c-ac53-b850af6c3dcc</uuid>
								<masterclipid>masterclip-2404</masterclipid>
								<ismasterclip>TRUE</ismasterclip>
								<duration>150</duration>
								<rate>
									<timebase>30</timebase>
									<ntsc>TRUE</ntsc>
								</rate>
								<in>0</in>
								<out>149</out>
								<name>Eagle_012.png</name>
								<media>
									<video>
										<track>
											<clipitem id="clipitem-27997">
												<masterclipid>masterclip-2404</masterclipid>
												<name>Eagle_012.png</name>
												<rate>
													<timebase>30</timebase>
													<ntsc>TRUE</ntsc>
												</rate>
												<alphatype>straight</alphatype>
												<pixelaspectratio>square</pixelaspectratio>
												<anamorphic>FALSE</anamorphic>
												<file id="file-2402">
													<name>Eagle_012.png</name>
													<pathurl>file://localhost/Users/fgiraffe/Premiere%20Pro%20Tuts/Lessons/Assets/Stills/Eagle_Photos/Eagle_012.png</pathurl>
													<rate>
														<timebase>30</timebase>
														<ntsc>TRUE</ntsc>
													</rate>
													<timecode>
														<rate>
															<timebase>30</timebase>
															<ntsc>TRUE</ntsc>
														</rate>
														<string>00:00:00:00</string>
														<frame>0</frame>
														<displayformat>NDF</displayformat>
													</timecode>
													<media>
														<video>
															<samplecharacteristics>
																<rate>
																	<timebase>30</timebase>
																	<ntsc>TRUE</ntsc>
																</rate>
																<width>1280</width>
																<height>720</height>
																<anamorphic>FALSE</anamorphic>
																<pixelaspectratio>square</pixelaspectratio>
																<fielddominance>none</fielddominance>
															</samplecharacteristics>
														</video>
													</media>
												</file>
											</clipitem>
										</track>
									</video>
								</media>
								<logginginfo>
									<description></description>
									<scene></scene>
									<shottake></shottake>
									<lognote></lognote>
								</logginginfo>
								<labels>
									<label2>Lavender</label2>
								</labels>
							</clip>
							<clip id="masterclip-2405" explodedTracks="true">
								<uuid>a8e7d9c1-dd46-420f-b857-c8354f165534</uuid>
								<masterclipid>masterclip-2405</masterclipid>
								<ismasterclip>TRUE</ismasterclip>
								<duration>150</duration>
								<rate>
									<timebase>30</timebase>
									<ntsc>TRUE</ntsc>
								</rate>
								<in>0</in>
								<out>149</out>
								<name>Eagle_013.png</name>
								<media>
									<video>
										<track>
											<clipitem id="clipitem-27998">
												<masterclipid>masterclip-2405</masterclipid>
												<name>Eagle_013.png</name>
												<rate>
													<timebase>30</timebase>
													<ntsc>TRUE</ntsc>
												</rate>
												<alphatype>straight</alphatype>
												<pixelaspectratio>square</pixelaspectratio>
												<anamorphic>FALSE</anamorphic>
												<file id="file-2403">
													<name>Eagle_013.png</name>
													<pathurl>file://localhost/Users/fgiraffe/Premiere%20Pro%20Tuts/Lessons/Assets/Stills/Eagle_Photos/Eagle_013.png</pathurl>
													<rate>
														<timebase>30</timebase>
														<ntsc>TRUE</ntsc>
													</rate>
													<timecode>
														<rate>
															<timebase>30</timebase>
															<ntsc>TRUE</ntsc>
														</rate>
														<string>00:00:00:00</string>
														<frame>0</frame>
														<displayformat>NDF</displayformat>
													</timecode>
													<media>
														<video>
															<samplecharacteristics>
																<rate>
																	<timebase>30</timebase>
																	<ntsc>TRUE</ntsc>
																</rate>
																<width>1280</width>
																<height>720</height>
																<anamorphic>FALSE</anamorphic>
																<pixelaspectratio>square</pixelaspectratio>
																<fielddominance>none</fielddominance>
															</samplecharacteristics>
														</video>
													</media>
												</file>
											</clipitem>
										</track>
									</video>
								</media>
								<logginginfo>
									<description></description>
									<scene></scene>
									<shottake></shottake>
									<lognote></lognote>
								</logginginfo>
								<labels>
									<label2>Lavender</label2>
								</labels>
							</clip>
							<clip id="masterclip-2406" explodedTracks="true">
								<uuid>54a3ee4b-2b0a-4a38-8435-594e86d9400b</uuid>
								<masterclipid>masterclip-2406</masterclipid>
								<ismasterclip>TRUE</ismasterclip>
								<duration>150</duration>
								<rate>
									<timebase>30</timebase>
									<ntsc>TRUE</ntsc>
								</rate>
								<in>0</in>
								<out>149</out>
								<name>Eagle_014.png</name>
								<media>
									<video>
										<track>
											<clipitem id="clipitem-27999">
												<masterclipid>masterclip-2406</masterclipid>
												<name>Eagle_014.png</name>
												<rate>
													<timebase>30</timebase>
													<ntsc>TRUE</ntsc>
												</rate>
												<alphatype>straight</alphatype>
												<pixelaspectratio>square</pixelaspectratio>
												<anamorphic>FALSE</anamorphic>
												<file id="file-2404">
													<name>Eagle_014.png</name>
													<pathurl>file://localhost/Users/fgiraffe/Premiere%20Pro%20Tuts/Lessons/Assets/Stills/Eagle_Photos/Eagle_014.png</pathurl>
													<rate>
														<timebase>30</timebase>
														<ntsc>TRUE</ntsc>
													</rate>
													<timecode>
														<rate>
															<timebase>30</timebase>
															<ntsc>TRUE</ntsc>
														</rate>
														<string>00:00:00:00</string>
														<frame>0</frame>
														<displayformat>NDF</displayformat>
													</timecode>
													<media>
														<video>
															<samplecharacteristics>
																<rate>
																	<timebase>30</timebase>
																	<ntsc>TRUE</ntsc>
																</rate>
																<width>1280</width>
																<height>720</height>
																<anamorphic>FALSE</anamorphic>
																<pixelaspectratio>square</pixelaspectratio>
																<fielddominance>none</fielddominance>
															</samplecharacteristics>
														</video>
													</media>
												</file>
											</clipitem>
										</track>
									</video>
								</media>
								<logginginfo>
									<description></description>
									<scene></scene>
									<shottake></shottake>
									<lognote></lognote>
								</logginginfo>
								<labels>
									<label2>Lavender</label2>
								</labels>
							</clip>
							<clip id="masterclip-2407" explodedTracks="true">
								<uuid>8cd8f59c-503f-43f8-8df4-fc6cad710c2c</uuid>
								<masterclipid>masterclip-2407</masterclipid>
								<ismasterclip>TRUE</ismasterclip>
								<duration>150</duration>
								<rate>
									<timebase>30</timebase>
									<ntsc>TRUE</ntsc>
								</rate>
								<in>0</in>
								<out>149</out>
								<name>Eagle_015.png</name>
								<media>
									<video>
										<track>
											<clipitem id="clipitem-28000">
												<masterclipid>masterclip-2407</masterclipid>
												<name>Eagle_015.png</name>
												<rate>
													<timebase>30</timebase>
													<ntsc>TRUE</ntsc>
												</rate>
												<alphatype>straight</alphatype>
												<pixelaspectratio>square</pixelaspectratio>
												<anamorphic>FALSE</anamorphic>
												<file id="file-2405">
													<name>Eagle_015.png</name>
													<pathurl>file://localhost/Users/fgiraffe/Premiere%20Pro%20Tuts/Lessons/Assets/Stills/Eagle_Photos/Eagle_015.png</pathurl>
													<rate>
														<timebase>30</timebase>
														<ntsc>TRUE</ntsc>
													</rate>
													<timecode>
														<rate>
															<timebase>30</timebase>
															<ntsc>TRUE</ntsc>
														</rate>
														<string>00:00:00:00</string>
														<frame>0</frame>
														<displayformat>NDF</displayformat>
													</timecode>
													<media>
														<video>
															<samplecharacteristics>
																<rate>
																	<timebase>30</timebase>
																	<ntsc>TRUE</ntsc>
																</rate>
																<width>1280</width>
																<height>720</height>
																<anamorphic>FALSE</anamorphic>
																<pixelaspectratio>square</pixelaspectratio>
																<fielddominance>none</fielddominance>
															</samplecharacteristics>
														</video>
													</media>
												</file>
											</clipitem>
										</track>
									</video>
								</media>
								<logginginfo>
									<description></description>
									<scene></scene>
									<shottake></shottake>
									<lognote></lognote>
								</logginginfo>
								<labels>
									<label2>Lavender</label2>
								</labels>
							</clip>
							<clip id="masterclip-2408" explodedTracks="true">
								<uuid>e78db981-574c-4e2b-96fb-13437a3e81f3</uuid>
								<masterclipid>masterclip-2408</masterclipid>
								<ismasterclip>TRUE</ismasterclip>
								<duration>150</duration>
								<rate>
									<timebase>30</timebase>
									<ntsc>TRUE</ntsc>
								</rate>
								<in>0</in>
								<out>149</out>
								<name>Eagle_016.png</name>
								<media>
									<video>
										<track>
											<clipitem id="clipitem-28001">
												<masterclipid>masterclip-2408</masterclipid>
												<name>Eagle_016.png</name>
												<rate>
													<timebase>30</timebase>
													<ntsc>TRUE</ntsc>
												</rate>
												<alphatype>straight</alphatype>
												<pixelaspectratio>square</pixelaspectratio>
												<anamorphic>FALSE</anamorphic>
												<file id="file-2406">
													<name>Eagle_016.png</name>
													<pathurl>file://localhost/Users/fgiraffe/Premiere%20Pro%20Tuts/Lessons/Assets/Stills/Eagle_Photos/Eagle_016.png</pathurl>
													<rate>
														<timebase>30</timebase>
														<ntsc>TRUE</ntsc>
													</rate>
													<timecode>
														<rate>
															<timebase>30</timebase>
															<ntsc>TRUE</ntsc>
														</rate>
														<string>00:00:00:00</string>
														<frame>0</frame>
														<displayformat>NDF</displayformat>
													</timecode>
													<media>
														<video>
															<samplecharacteristics>
																<rate>
																	<timebase>30</timebase>
																	<ntsc>TRUE</ntsc>
																</rate>
																<width>1280</width>
																<height>720</height>
																<anamorphic>FALSE</anamorphic>
																<pixelaspectratio>square</pixelaspectratio>
																<fielddominance>none</fielddominance>
															</samplecharacteristics>
														</video>
													</media>
												</file>
											</clipitem>
										</track>
									</video>
								</media>
								<logginginfo>
									<description></description>
									<scene></scene>
									<shottake></shottake>
									<lognote></lognote>
								</logginginfo>
								<labels>
									<label2>Lavender</label2>
								</labels>
							</clip>
						</children>
					</bin>
					<bin>
						<name>City</name>
						<labels>
							<label2>Mango</label2>
						</labels>
						<children>
							<clip id="masterclip-2409" explodedTracks="true">
								<uuid>cce8750e-31f7-41de-92e2-3bb7a90f2f97</uuid>
								<masterclipid>masterclip-2409</masterclipid>
								<ismasterclip>TRUE</ismasterclip>
								<duration>150</duration>
								<rate>
									<timebase>30</timebase>
									<ntsc>TRUE</ntsc>
								</rate>
								<in>0</in>
								<out>149</out>
								<name>Desert_Scene.tga</name>
								<media>
									<video>
										<track>
											<clipitem id="clipitem-28002">
												<masterclipid>masterclip-2409</masterclipid>
												<name>Desert_Scene.tga</name>
												<rate>
													<timebase>30</timebase>
													<ntsc>TRUE</ntsc>
												</rate>
												<alphatype>straight</alphatype>
												<pixelaspectratio>square</pixelaspectratio>
												<anamorphic>FALSE</anamorphic>
												<file id="file-2407">
													<name>Desert_Scene.tga</name>
													<pathurl>file://localhost/Users/fgiraffe/Premiere%20Pro%20Tuts/Lessons/Assets/Stills/City/Desert_Scene.tga</pathurl>
													<rate>
														<timebase>30</timebase>
														<ntsc>TRUE</ntsc>
													</rate>
													<timecode>
														<rate>
															<timebase>30</timebase>
															<ntsc>TRUE</ntsc>
														</rate>
														<string>00:00:00:00</string>
														<frame>0</frame>
														<displayformat>NDF</displayformat>
													</timecode>
													<media>
														<video>
															<samplecharacteristics>
																<rate>
																	<timebase>30</timebase>
																	<ntsc>TRUE</ntsc>
																</rate>
																<width>1280</width>
																<height>720</height>
																<anamorphic>FALSE</anamorphic>
																<pixelaspectratio>square</pixelaspectratio>
																<fielddominance>none</fielddominance>
															</samplecharacteristics>
														</video>
													</media>
												</file>
											</clipitem>
										</track>
									</video>
								</media>
								<logginginfo>
									<description></description>
									<scene></scene>
									<shottake></shottake>
									<lognote></lognote>
								</logginginfo>
								<labels>
									<label2>Lavender</label2>
								</labels>
							</clip>
							<clip id="masterclip-2410" explodedTracks="true">
								<uuid>da6e2ad6-cf25-42a2-b19d-01f8964237a8</uuid>
								<masterclipid>masterclip-2410</masterclipid>
								<ismasterclip>TRUE</ismasterclip>
								<duration>150</duration>
								<rate>
									<timebase>30</timebase>
									<ntsc>TRUE</ntsc>
								</rate>
								<in>0</in>
								<out>149</out>
								<name>Seattle_Skyline_Still.tga</name>
								<media>
									<video>
										<track>
											<clipitem id="clipitem-28003">
												<masterclipid>masterclip-2410</masterclipid>
												<name>Seattle_Skyline_Still.tga</name>
												<rate>
													<timebase>30</timebase>
													<ntsc>TRUE</ntsc>
												</rate>
												<alphatype>straight</alphatype>
												<pixelaspectratio>square</pixelaspectratio>
												<anamorphic>FALSE</anamorphic>
												<file id="file-2408">
													<name>Seattle_Skyline_Still.tga</name>
													<pathurl>file://localhost/Users/fgiraffe/Premiere%20Pro%20Tuts/Lessons/Assets/Stills/City/Seattle_Skyline_Still.tga</pathurl>
													<rate>
														<timebase>30</timebase>
														<ntsc>TRUE</ntsc>
													</rate>
													<timecode>
														<rate>
															<timebase>30</timebase>
															<ntsc>TRUE</ntsc>
														</rate>
														<string>00:00:00:00</string>
														<frame>0</frame>
														<displayformat>NDF</displayformat>
													</timecode>
													<media>
														<video>
															<samplecharacteristics>
																<rate>
																	<timebase>30</timebase>
																	<ntsc>TRUE</ntsc>
																</rate>
																<width>1280</width>
																<height>720</height>
																<anamorphic>FALSE</anamorphic>
																<pixelaspectratio>square</pixelaspectratio>
																<fielddominance>none</fielddominance>
															</samplecharacteristics>
														</video>
													</media>
												</file>
											</clipitem>
										</track>
									</video>
								</media>
								<logginginfo>
									<description></description>
									<scene></scene>
									<shottake></shottake>
									<lognote></lognote>
								</logginginfo>
								<labels>
									<label2>Lavender</label2>
								</labels>
							</clip>
						</children>
					</bin>
					<bin>
						<name>Bin</name>
						<labels>
							<label2>Mango</label2>
						</labels>
						<children>
						</children>
					</bin>
				</children>
			</bin>
			<bin>
				<name>Theft Unexpected</name>
				<labels>
					<label2>Mango</label2>
				</labels>
				<children>
					<clip id="masterclip-2411" explodedTracks="true">
						<uuid>6ca296fc-88b7-43e3-9f1c-a5856fcc68c3</uuid>
						<masterclipid>masterclip-2411</masterclipid>
						<ismasterclip>TRUE</ismasterclip>
						<duration>4706</duration>
						<rate>
							<timebase>25</timebase>
							<ntsc>FALSE</ntsc>
						</rate>
						<in>866</in>
						<out>992</out>
						<name>Mid Suit - 00008_1.mxf</name>
						<media>
							<video>
								<track>
									<clipitem id="clipitem-28004">
										<masterclipid>masterclip-2411</masterclipid>
										<name>Mid Suit - 00008_1.mxf</name>
										<rate>
											<timebase>25</timebase>
											<ntsc>FALSE</ntsc>
										</rate>
										<alphatype>none</alphatype>
										<pixelaspectratio>square</pixelaspectratio>
										<anamorphic>FALSE</anamorphic>
										<file id="file-2409">
											<name>Mid Suit - 00008.mp4</name>
											<pathurl>file://localhost/Users/fgiraffe/Premiere%20Pro%20Tuts/Lessons/Assets/Video%20and%20Audio%20Files/Theft%20Unexpected/Mid%20Suit%20-%2000008.mp4</pathurl>
											<rate>
												<timebase>25</timebase>
												<ntsc>FALSE</ntsc>
											</rate>
											<duration>4706</duration>
											<timecode>
												<rate>
													<timebase>25</timebase>
													<ntsc>FALSE</ntsc>
												</rate>
												<string>01:15:20:09</string>
												<frame>113009</frame>
												<displayformat>NDF</displayformat>
											</timecode>
											<media>
												<video>
													<samplecharacteristics>
														<rate>
															<timebase>25</timebase>
															<ntsc>FALSE</ntsc>
														</rate>
														<width>1280</width>
														<height>720</height>
														<anamorphic>FALSE</anamorphic>
														<pixelaspectratio>square</pixelaspectratio>
														<fielddominance>none</fielddominance>
													</samplecharacteristics>
												</video>
												<audio>
													<samplecharacteristics>
														<depth>16</depth>
														<samplerate>48000</samplerate>
													</samplecharacteristics>
													<channelcount>2</channelcount>
												</audio>
											</media>
										</file>
										<link>
											<linkclipref>clipitem-28004</linkclipref>
											<mediatype>video</mediatype>
											<trackindex>1</trackindex>
											<clipindex>1</clipindex>
										</link>
										<link>
											<linkclipref>clipitem-28005</linkclipref>
											<mediatype>audio</mediatype>
											<trackindex>1</trackindex>
											<clipindex>1</clipindex>
											<groupindex>1</groupindex>
										</link>
										<link>
											<linkclipref>clipitem-28006</linkclipref>
											<mediatype>audio</mediatype>
											<trackindex>2</trackindex>
											<clipindex>1</clipindex>
											<groupindex>1</groupindex>
										</link>
									</clipitem>
								</track>
							</video>
							<audio>
								<track>
									<clipitem id="clipitem-28005">
										<masterclipid>masterclip-2411</masterclipid>
										<name>Mid Suit - 00008_1.mxf</name>
										<rate>
											<timebase>25</timebase>
											<ntsc>FALSE</ntsc>
										</rate>
										<file id="file-2409"/>
										<sourcetrack>
											<mediatype>audio</mediatype>
											<trackindex>1</trackindex>
										</sourcetrack>
										<link>
											<linkclipref>clipitem-28004</linkclipref>
											<mediatype>video</mediatype>
											<trackindex>1</trackindex>
											<clipindex>1</clipindex>
										</link>
										<link>
											<linkclipref>clipitem-28005</linkclipref>
											<mediatype>audio</mediatype>
											<trackindex>1</trackindex>
											<clipindex>1</clipindex>
											<groupindex>1</groupindex>
										</link>
										<link>
											<linkclipref>clipitem-28006</linkclipref>
											<mediatype>audio</mediatype>
											<trackindex>2</trackindex>
											<clipindex>1</clipindex>
											<groupindex>1</groupindex>
										</link>
									</clipitem>
								</track>
								<track>
									<clipitem id="clipitem-28006">
										<masterclipid>masterclip-2411</masterclipid>
										<name>Mid Suit - 00008_1.mxf</name>
										<rate>
											<timebase>25</timebase>
											<ntsc>FALSE</ntsc>
										</rate>
										<file id="file-2409"/>
										<sourcetrack>
											<mediatype>audio</mediatype>
											<trackindex>2</trackindex>
										</sourcetrack>
										<link>
											<linkclipref>clipitem-28004</linkclipref>
											<mediatype>video</mediatype>
											<trackindex>1</trackindex>
											<clipindex>1</clipindex>
										</link>
										<link>
											<linkclipref>clipitem-28005</linkclipref>
											<mediatype>audio</mediatype>
											<trackindex>1</trackindex>
											<clipindex>1</clipindex>
											<groupindex>1</groupindex>
										</link>
										<link>
											<linkclipref>clipitem-28006</linkclipref>
											<mediatype>audio</mediatype>
											<trackindex>2</trackindex>
											<clipindex>1</clipindex>
											<groupindex>1</groupindex>
										</link>
									</clipitem>
								</track>
							</audio>
						</media>
						<logginginfo>
							<description></description>
							<scene>1</scene>
							<shottake></shottake>
							<lognote></lognote>
						</logginginfo>
						<labels>
							<label2>Iris</label2>
						</labels>
					</clip>
					<clip id="masterclip-2412" explodedTracks="true">
						<uuid>e641b42b-2b38-4933-b5b7-055c7e27bed3</uuid>
						<masterclipid>masterclip-2412</masterclipid>
						<ismasterclip>TRUE</ismasterclip>
						<duration>4628</duration>
						<rate>
							<timebase>25</timebase>
							<ntsc>FALSE</ntsc>
						</rate>
						<in>984</in>
						<out>1033</out>
						<name>HS Suit - 00017_1.mxf</name>
						<media>
							<video>
								<track>
									<clipitem id="clipitem-28007">
										<masterclipid>masterclip-2412</masterclipid>
										<name>HS Suit - 00017_1.mxf</name>
										<rate>
											<timebase>25</timebase>
											<ntsc>FALSE</ntsc>
										</rate>
										<alphatype>none</alphatype>
										<pixelaspectratio>square</pixelaspectratio>
										<anamorphic>FALSE</anamorphic>
										<file id="file-2410">
											<name>HS Suit - 00017.mp4</name>
											<pathurl>file://localhost/Users/fgiraffe/Premiere%20Pro%20Tuts/Lessons/Assets/Video%20and%20Audio%20Files/Theft%20Unexpected/HS%20Suit%20-%2000017.mp4</pathurl>
											<rate>
												<timebase>25</timebase>
												<ntsc>FALSE</ntsc>
											</rate>
											<duration>4628</duration>
											<timecode>
												<rate>
													<timebase>25</timebase>
													<ntsc>FALSE</ntsc>
												</rate>
												<string>01:26:21:07</string>
												<frame>129532</frame>
												<displayformat>NDF</displayformat>
											</timecode>
											<media>
												<video>
													<samplecharacteristics>
														<rate>
															<timebase>25</timebase>
															<ntsc>FALSE</ntsc>
														</rate>
														<width>1280</width>
														<height>720</height>
														<anamorphic>FALSE</anamorphic>
														<pixelaspectratio>square</pixelaspectratio>
														<fielddominance>none</fielddominance>
													</samplecharacteristics>
												</video>
												<audio>
													<samplecharacteristics>
														<depth>16</depth>
														<samplerate>48000</samplerate>
													</samplecharacteristics>
													<channelcount>2</channelcount>
												</audio>
											</media>
										</file>
										<link>
											<linkclipref>clipitem-28007</linkclipref>
											<mediatype>video</mediatype>
											<trackindex>1</trackindex>
											<clipindex>1</clipindex>
										</link>
										<link>
											<linkclipref>clipitem-28008</linkclipref>
											<mediatype>audio</mediatype>
											<trackindex>1</trackindex>
											<clipindex>1</clipindex>
											<groupindex>1</groupindex>
										</link>
										<link>
											<linkclipref>clipitem-28009</linkclipref>
											<mediatype>audio</mediatype>
											<trackindex>2</trackindex>
											<clipindex>1</clipindex>
											<groupindex>1</groupindex>
										</link>
									</clipitem>
								</track>
							</video>
							<audio>
								<track>
									<clipitem id="clipitem-28008">
										<masterclipid>masterclip-2412</masterclipid>
										<name>HS Suit - 00017_1.mxf</name>
										<rate>
											<timebase>25</timebase>
											<ntsc>FALSE</ntsc>
										</rate>
										<file id="file-2410"/>
										<sourcetrack>
											<mediatype>audio</mediatype>
											<trackindex>1</trackindex>
										</sourcetrack>
										<link>
											<linkclipref>clipitem-28007</linkclipref>
											<mediatype>video</mediatype>
											<trackindex>1</trackindex>
											<clipindex>1</clipindex>
										</link>
										<link>
											<linkclipref>clipitem-28008</linkclipref>
											<mediatype>audio</mediatype>
											<trackindex>1</trackindex>
											<clipindex>1</clipindex>
											<groupindex>1</groupindex>
										</link>
										<link>
											<linkclipref>clipitem-28009</linkclipref>
											<mediatype>audio</mediatype>
											<trackindex>2</trackindex>
											<clipindex>1</clipindex>
											<groupindex>1</groupindex>
										</link>
									</clipitem>
								</track>
								<track>
									<clipitem id="clipitem-28009">
										<masterclipid>masterclip-2412</masterclipid>
										<name>HS Suit - 00017_1.mxf</name>
										<rate>
											<timebase>25</timebase>
											<ntsc>FALSE</ntsc>
										</rate>
										<file id="file-2410"/>
										<sourcetrack>
											<mediatype>audio</mediatype>
											<trackindex>2</trackindex>
										</sourcetrack>
										<link>
											<linkclipref>clipitem-28007</linkclipref>
											<mediatype>video</mediatype>
											<trackindex>1</trackindex>
											<clipindex>1</clipindex>
										</link>
										<link>
											<linkclipref>clipitem-28008</linkclipref>
											<mediatype>audio</mediatype>
											<trackindex>1</trackindex>
											<clipindex>1</clipindex>
											<groupindex>1</groupindex>
										</link>
										<link>
											<linkclipref>clipitem-28009</linkclipref>
											<mediatype>audio</mediatype>
											<trackindex>2</trackindex>
											<clipindex>1</clipindex>
											<groupindex>1</groupindex>
										</link>
									</clipitem>
								</track>
							</audio>
						</media>
						<logginginfo>
							<description></description>
							<scene>1</scene>
							<shottake></shottake>
							<lognote></lognote>
						</logginginfo>
						<labels>
							<label2>Iris</label2>
						</labels>
					</clip>
					<clip id="masterclip-2413" explodedTracks="true">
						<uuid>ffa5982b-3f19-44a4-9406-7c12d8ffe82e</uuid>
						<masterclipid>masterclip-2413</masterclipid>
						<ismasterclip>TRUE</ismasterclip>
						<duration>4641</duration>
						<rate>
							<timebase>25</timebase>
							<ntsc>FALSE</ntsc>
						</rate>
						<in>729</in>
						<out>1030</out>
						<name>Mid John - 00028_1.mxf</name>
						<media>
							<video>
								<track>
									<clipitem id="clipitem-28010">
										<masterclipid>masterclip-2413</masterclipid>
										<name>Mid John - 00028_1.mxf</name>
										<rate>
											<timebase>25</timebase>
											<ntsc>FALSE</ntsc>
										</rate>
										<alphatype>none</alphatype>
										<pixelaspectratio>square</pixelaspectratio>
										<anamorphic>FALSE</anamorphic>
										<file id="file-2411">
											<name>Mid John - 00028.mp4</name>
											<pathurl>file://localhost/Users/fgiraffe/Premiere%20Pro%20Tuts/Lessons/Assets/Video%20and%20Audio%20Files/Theft%20Unexpected/Mid%20John%20-%2000028.mp4</pathurl>
											<rate>
												<timebase>25</timebase>
												<ntsc>FALSE</ntsc>
											</rate>
											<duration>4641</duration>
											<timecode>
												<rate>
													<timebase>25</timebase>
													<ntsc>FALSE</ntsc>
												</rate>
												<string>01:39:22:21</string>
												<frame>149071</frame>
												<displayformat>NDF</displayformat>
											</timecode>
											<media>
												<video>
													<samplecharacteristics>
														<rate>
															<timebase>25</timebase>
															<ntsc>FALSE</ntsc>
														</rate>
														<width>1280</width>
														<height>720</height>
														<anamorphic>FALSE</anamorphic>
														<pixelaspectratio>square</pixelaspectratio>
														<fielddominance>none</fielddominance>
													</samplecharacteristics>
												</video>
												<audio>
													<samplecharacteristics>
														<depth>16</depth>
														<samplerate>48000</samplerate>
													</samplecharacteristics>
													<channelcount>2</channelcount>
												</audio>
											</media>
										</file>
										<link>
											<linkclipref>clipitem-28010</linkclipref>
											<mediatype>video</mediatype>
											<trackindex>1</trackindex>
											<clipindex>1</clipindex>
										</link>
										<link>
											<linkclipref>clipitem-28011</linkclipref>
											<mediatype>audio</mediatype>
											<trackindex>1</trackindex>
											<clipindex>1</clipindex>
											<groupindex>1</groupindex>
										</link>
										<link>
											<linkclipref>clipitem-28012</linkclipref>
											<mediatype>audio</mediatype>
											<trackindex>2</trackindex>
											<clipindex>1</clipindex>
											<groupindex>1</groupindex>
										</link>
									</clipitem>
								</track>
							</video>
							<audio>
								<track>
									<clipitem id="clipitem-28011">
										<masterclipid>masterclip-2413</masterclipid>
										<name>Mid John - 00028_1.mxf</name>
										<rate>
											<timebase>25</timebase>
											<ntsc>FALSE</ntsc>
										</rate>
										<file id="file-2411"/>
										<sourcetrack>
											<mediatype>audio</mediatype>
											<trackindex>1</trackindex>
										</sourcetrack>
										<link>
											<linkclipref>clipitem-28010</linkclipref>
											<mediatype>video</mediatype>
											<trackindex>1</trackindex>
											<clipindex>1</clipindex>
										</link>
										<link>
											<linkclipref>clipitem-28011</linkclipref>
											<mediatype>audio</mediatype>
											<trackindex>1</trackindex>
											<clipindex>1</clipindex>
											<groupindex>1</groupindex>
										</link>
										<link>
											<linkclipref>clipitem-28012</linkclipref>
											<mediatype>audio</mediatype>
											<trackindex>2</trackindex>
											<clipindex>1</clipindex>
											<groupindex>1</groupindex>
										</link>
									</clipitem>
								</track>
								<track>
									<clipitem id="clipitem-28012">
										<masterclipid>masterclip-2413</masterclipid>
										<name>Mid John - 00028_1.mxf</name>
										<rate>
											<timebase>25</timebase>
											<ntsc>FALSE</ntsc>
										</rate>
										<file id="file-2411"/>
										<sourcetrack>
											<mediatype>audio</mediatype>
											<trackindex>2</trackindex>
										</sourcetrack>
										<link>
											<linkclipref>clipitem-28010</linkclipref>
											<mediatype>video</mediatype>
											<trackindex>1</trackindex>
											<clipindex>1</clipindex>
										</link>
										<link>
											<linkclipref>clipitem-28011</linkclipref>
											<mediatype>audio</mediatype>
											<trackindex>1</trackindex>
											<clipindex>1</clipindex>
											<groupindex>1</groupindex>
										</link>
										<link>
											<linkclipref>clipitem-28012</linkclipref>
											<mediatype>audio</mediatype>
											<trackindex>2</trackindex>
											<clipindex>1</clipindex>
											<groupindex>1</groupindex>
										</link>
									</clipitem>
								</track>
							</audio>
						</media>
						<logginginfo>
							<description></description>
							<scene>1</scene>
							<shottake></shottake>
							<lognote></lognote>
						</logginginfo>
						<labels>
							<label2>Iris</label2>
						</labels>
					</clip>
					<clip id="masterclip-2414" explodedTracks="true">
						<uuid>80f4d6d2-82af-4696-b18e-2d5b83d2b839</uuid>
						<masterclipid>masterclip-2414</masterclipid>
						<ismasterclip>TRUE</ismasterclip>
						<duration>5772</duration>
						<rate>
							<timebase>25</timebase>
							<ntsc>FALSE</ntsc>
						</rate>
						<name>HS John - 00032_1.mxf</name>
						<media>
							<video>
								<track>
									<clipitem id="clipitem-28013">
										<masterclipid>masterclip-2414</masterclipid>
										<name>HS John - 00032_1.mxf</name>
										<rate>
											<timebase>25</timebase>
											<ntsc>FALSE</ntsc>
										</rate>
										<alphatype>none</alphatype>
										<pixelaspectratio>square</pixelaspectratio>
										<anamorphic>FALSE</anamorphic>
										<file id="file-2412">
											<name>HS John - 00032.mp4</name>
											<pathurl>file://localhost/Users/fgiraffe/Premiere%20Pro%20Tuts/Lessons/Assets/Video%20and%20Audio%20Files/Theft%20Unexpected/HS%20John%20-%2000032.mp4</pathurl>
											<rate>
												<timebase>25</timebase>
												<ntsc>FALSE</ntsc>
											</rate>
											<duration>5772</duration>
											<timecode>
												<rate>
													<timebase>25</timebase>
													<ntsc>FALSE</ntsc>
												</rate>
												<string>01:46:22:12</string>
												<frame>159562</frame>
												<displayformat>NDF</displayformat>
											</timecode>
											<media>
												<video>
													<samplecharacteristics>
														<rate>
															<timebase>25</timebase>
															<ntsc>FALSE</ntsc>
														</rate>
														<width>1280</width>
														<height>720</height>
														<anamorphic>FALSE</anamorphic>
														<pixelaspectratio>square</pixelaspectratio>
														<fielddominance>none</fielddominance>
													</samplecharacteristics>
												</video>
												<audio>
													<samplecharacteristics>
														<depth>16</depth>
														<samplerate>48000</samplerate>
													</samplecharacteristics>
													<channelcount>2</channelcount>
												</audio>
											</media>
										</file>
										<link>
											<linkclipref>clipitem-28013</linkclipref>
											<mediatype>video</mediatype>
											<trackindex>1</trackindex>
											<clipindex>1</clipindex>
										</link>
										<link>
											<linkclipref>clipitem-28014</linkclipref>
											<mediatype>audio</mediatype>
											<trackindex>1</trackindex>
											<clipindex>1</clipindex>
											<groupindex>1</groupindex>
										</link>
										<link>
											<linkclipref>clipitem-28015</linkclipref>
											<mediatype>audio</mediatype>
											<trackindex>2</trackindex>
											<clipindex>1</clipindex>
											<groupindex>1</groupindex>
										</link>
									</clipitem>
								</track>
							</video>
							<audio>
								<track>
									<clipitem id="clipitem-28014">
										<masterclipid>masterclip-2414</masterclipid>
										<name>HS John - 00032_1.mxf</name>
										<rate>
											<timebase>25</timebase>
											<ntsc>FALSE</ntsc>
										</rate>
										<file id="file-2412"/>
										<sourcetrack>
											<mediatype>audio</mediatype>
											<trackindex>1</trackindex>
										</sourcetrack>
										<link>
											<linkclipref>clipitem-28013</linkclipref>
											<mediatype>video</mediatype>
											<trackindex>1</trackindex>
											<clipindex>1</clipindex>
										</link>
										<link>
											<linkclipref>clipitem-28014</linkclipref>
											<mediatype>audio</mediatype>
											<trackindex>1</trackindex>
											<clipindex>1</clipindex>
											<groupindex>1</groupindex>
										</link>
										<link>
											<linkclipref>clipitem-28015</linkclipref>
											<mediatype>audio</mediatype>
											<trackindex>2</trackindex>
											<clipindex>1</clipindex>
											<groupindex>1</groupindex>
										</link>
									</clipitem>
								</track>
								<track>
									<clipitem id="clipitem-28015">
										<masterclipid>masterclip-2414</masterclipid>
										<name>HS John - 00032_1.mxf</name>
										<rate>
											<timebase>25</timebase>
											<ntsc>FALSE</ntsc>
										</rate>
										<file id="file-2412"/>
										<sourcetrack>
											<mediatype>audio</mediatype>
											<trackindex>2</trackindex>
										</sourcetrack>
										<link>
											<linkclipref>clipitem-28013</linkclipref>
											<mediatype>video</mediatype>
											<trackindex>1</trackindex>
											<clipindex>1</clipindex>
										</link>
										<link>
											<linkclipref>clipitem-28014</linkclipref>
											<mediatype>audio</mediatype>
											<trackindex>1</trackindex>
											<clipindex>1</clipindex>
											<groupindex>1</groupindex>
										</link>
										<link>
											<linkclipref>clipitem-28015</linkclipref>
											<mediatype>audio</mediatype>
											<trackindex>2</trackindex>
											<clipindex>1</clipindex>
											<groupindex>1</groupindex>
										</link>
									</clipitem>
								</track>
							</audio>
						</media>
						<logginginfo>
							<description></description>
							<scene>1</scene>
							<shottake></shottake>
							<lognote></lognote>
						</logginginfo>
						<labels>
							<label2>Iris</label2>
						</labels>
					</clip>
					<clip id="masterclip-2415" explodedTracks="true">
						<uuid>3c7b28ad-7952-4ec7-a7c1-e922902c103b</uuid>
						<masterclipid>masterclip-2415</masterclipid>
						<ismasterclip>TRUE</ismasterclip>
						<duration>780</duration>
						<rate>
							<timebase>25</timebase>
							<ntsc>FALSE</ntsc>
						</rate>
						<in>430</in>
						<out>609</out>
						<name>Excuse Me - 00035_1.mxf</name>
						<media>
							<video>
								<track>
									<clipitem id="clipitem-28016">
										<masterclipid>masterclip-2415</masterclipid>
										<name>Excuse Me - 00035_1.mxf</name>
										<rate>
											<timebase>25</timebase>
											<ntsc>FALSE</ntsc>
										</rate>
										<alphatype>none</alphatype>
										<pixelaspectratio>square</pixelaspectratio>
										<anamorphic>FALSE</anamorphic>
										<file id="file-2413">
											<name>Excuse Me - 00035.mp4</name>
											<pathurl>file://localhost/Users/fgiraffe/Premiere%20Pro%20Tuts/Lessons/Assets/Video%20and%20Audio%20Files/Theft%20Unexpected/Excuse%20Me%20-%2000035.mp4</pathurl>
											<rate>
												<timebase>25</timebase>
												<ntsc>FALSE</ntsc>
											</rate>
											<duration>780</duration>
											<timecode>
												<rate>
													<timebase>25</timebase>
													<ntsc>FALSE</ntsc>
												</rate>
												<string>01:53:49:17</string>
												<frame>170742</frame>
												<displayformat>NDF</displayformat>
											</timecode>
											<media>
												<video>
													<samplecharacteristics>
														<rate>
															<timebase>25</timebase>
															<ntsc>FALSE</ntsc>
														</rate>
														<width>1280</width>
														<height>720</height>
														<anamorphic>FALSE</anamorphic>
														<pixelaspectratio>square</pixelaspectratio>
														<fielddominance>none</fielddominance>
													</samplecharacteristics>
												</video>
												<audio>
													<samplecharacteristics>
														<depth>16</depth>
														<samplerate>48000</samplerate>
													</samplecharacteristics>
													<channelcount>2</channelcount>
												</audio>
											</media>
										</file>
										<link>
											<linkclipref>clipitem-28016</linkclipref>
											<mediatype>video</mediatype>
											<trackindex>1</trackindex>
											<clipindex>1</clipindex>
										</link>
										<link>
											<linkclipref>clipitem-28017</linkclipref>
											<mediatype>audio</mediatype>
											<trackindex>1</trackindex>
											<clipindex>1</clipindex>
											<groupindex>1</groupindex>
										</link>
										<link>
											<linkclipref>clipitem-28018</linkclipref>
											<mediatype>audio</mediatype>
											<trackindex>2</trackindex>
											<clipindex>1</clipindex>
											<groupindex>1</groupindex>
										</link>
									</clipitem>
								</track>
							</video>
							<audio>
								<track>
									<clipitem id="clipitem-28017">
										<masterclipid>masterclip-2415</masterclipid>
										<name>Excuse Me - 00035_1.mxf</name>
										<rate>
											<timebase>25</timebase>
											<ntsc>FALSE</ntsc>
										</rate>
										<file id="file-2413"/>
										<sourcetrack>
											<mediatype>audio</mediatype>
											<trackindex>1</trackindex>
										</sourcetrack>
										<link>
											<linkclipref>clipitem-28016</linkclipref>
											<mediatype>video</mediatype>
											<trackindex>1</trackindex>
											<clipindex>1</clipindex>
										</link>
										<link>
											<linkclipref>clipitem-28017</linkclipref>
											<mediatype>audio</mediatype>
											<trackindex>1</trackindex>
											<clipindex>1</clipindex>
											<groupindex>1</groupindex>
										</link>
										<link>
											<linkclipref>clipitem-28018</linkclipref>
											<mediatype>audio</mediatype>
											<trackindex>2</trackindex>
											<clipindex>1</clipindex>
											<groupindex>1</groupindex>
										</link>
									</clipitem>
								</track>
								<track>
									<clipitem id="clipitem-28018">
										<masterclipid>masterclip-2415</masterclipid>
										<name>Excuse Me - 00035_1.mxf</name>
										<rate>
											<timebase>25</timebase>
											<ntsc>FALSE</ntsc>
										</rate>
										<file id="file-2413"/>
										<sourcetrack>
											<mediatype>audio</mediatype>
											<trackindex>2</trackindex>
										</sourcetrack>
										<link>
											<linkclipref>clipitem-28016</linkclipref>
											<mediatype>video</mediatype>
											<trackindex>1</trackindex>
											<clipindex>1</clipindex>
										</link>
										<link>
											<linkclipref>clipitem-28017</linkclipref>
											<mediatype>audio</mediatype>
											<trackindex>1</trackindex>
											<clipindex>1</clipindex>
											<groupindex>1</groupindex>
										</link>
										<link>
											<linkclipref>clipitem-28018</linkclipref>
											<mediatype>audio</mediatype>
											<trackindex>2</trackindex>
											<clipindex>1</clipindex>
											<groupindex>1</groupindex>
										</link>
									</clipitem>
								</track>
							</audio>
						</media>
						<logginginfo>
							<description></description>
							<scene></scene>
							<shottake></shottake>
							<lognote></lognote>
						</logginginfo>
						<labels>
							<label2>Iris</label2>
						</labels>
					</clip>
					<clip id="masterclip-2416" explodedTracks="true">
						<uuid>99121c19-1855-44b3-8135-9947bacafd64</uuid>
						<masterclipid>masterclip-2416</masterclipid>
						<ismasterclip>TRUE</ismasterclip>
						<duration>2548</duration>
						<rate>
							<timebase>25</timebase>
							<ntsc>FALSE</ntsc>
						</rate>
						<name>Excuse Me Tilted - 00036_1.mxf</name>
						<media>
							<video>
								<track>
									<clipitem id="clipitem-28019">
										<masterclipid>masterclip-2416</masterclipid>
										<name>Excuse Me Tilted - 00036_1.mxf</name>
										<rate>
											<timebase>25</timebase>
											<ntsc>FALSE</ntsc>
										</rate>
										<alphatype>none</alphatype>
										<pixelaspectratio>square</pixelaspectratio>
										<anamorphic>FALSE</anamorphic>
										<file id="file-2414">
											<name>Excuse Me Tilted - 00036.mp4</name>
											<pathurl>file://localhost/Users/fgiraffe/Premiere%20Pro%20Tuts/Lessons/Assets/Video%20and%20Audio%20Files/Theft%20Unexpected/Excuse%20Me%20Tilted%20-%2000036.mp4</pathurl>
											<rate>
												<timebase>25</timebase>
												<ntsc>FALSE</ntsc>
											</rate>
											<duration>2548</duration>
											<timecode>
												<rate>
													<timebase>25</timebase>
													<ntsc>FALSE</ntsc>
												</rate>
												<string>01:54:20:22</string>
												<frame>171522</frame>
												<displayformat>NDF</displayformat>
											</timecode>
											<media>
												<video>
													<samplecharacteristics>
														<rate>
															<timebase>25</timebase>
															<ntsc>FALSE</ntsc>
														</rate>
														<width>1280</width>
														<height>720</height>
														<anamorphic>FALSE</anamorphic>
														<pixelaspectratio>square</pixelaspectratio>
														<fielddominance>none</fielddominance>
													</samplecharacteristics>
												</video>
												<audio>
													<samplecharacteristics>
														<depth>16</depth>
														<samplerate>48000</samplerate>
													</samplecharacteristics>
													<channelcount>2</channelcount>
												</audio>
											</media>
										</file>
										<link>
											<linkclipref>clipitem-28019</linkclipref>
											<mediatype>video</mediatype>
											<trackindex>1</trackindex>
											<clipindex>1</clipindex>
										</link>
										<link>
											<linkclipref>clipitem-28020</linkclipref>
											<mediatype>audio</mediatype>
											<trackindex>1</trackindex>
											<clipindex>1</clipindex>
											<groupindex>1</groupindex>
										</link>
										<link>
											<linkclipref>clipitem-28021</linkclipref>
											<mediatype>audio</mediatype>
											<trackindex>2</trackindex>
											<clipindex>1</clipindex>
											<groupindex>1</groupindex>
										</link>
									</clipitem>
								</track>
							</video>
							<audio>
								<track>
									<clipitem id="clipitem-28020">
										<masterclipid>masterclip-2416</masterclipid>
										<name>Excuse Me Tilted - 00036_1.mxf</name>
										<rate>
											<timebase>25</timebase>
											<ntsc>FALSE</ntsc>
										</rate>
										<file id="file-2414"/>
										<sourcetrack>
											<mediatype>audio</mediatype>
											<trackindex>1</trackindex>
										</sourcetrack>
										<link>
											<linkclipref>clipitem-28019</linkclipref>
											<mediatype>video</mediatype>
											<trackindex>1</trackindex>
											<clipindex>1</clipindex>
										</link>
										<link>
											<linkclipref>clipitem-28020</linkclipref>
											<mediatype>audio</mediatype>
											<trackindex>1</trackindex>
											<clipindex>1</clipindex>
											<groupindex>1</groupindex>
										</link>
										<link>
											<linkclipref>clipitem-28021</linkclipref>
											<mediatype>audio</mediatype>
											<trackindex>2</trackindex>
											<clipindex>1</clipindex>
											<groupindex>1</groupindex>
										</link>
									</clipitem>
								</track>
								<track>
									<clipitem id="clipitem-28021">
										<masterclipid>masterclip-2416</masterclipid>
										<name>Excuse Me Tilted - 00036_1.mxf</name>
										<rate>
											<timebase>25</timebase>
											<ntsc>FALSE</ntsc>
										</rate>
										<file id="file-2414"/>
										<sourcetrack>
											<mediatype>audio</mediatype>
											<trackindex>2</trackindex>
										</sourcetrack>
										<link>
											<linkclipref>clipitem-28019</linkclipref>
											<mediatype>video</mediatype>
											<trackindex>1</trackindex>
											<clipindex>1</clipindex>
										</link>
										<link>
											<linkclipref>clipitem-28020</linkclipref>
											<mediatype>audio</mediatype>
											<trackindex>1</trackindex>
											<clipindex>1</clipindex>
											<groupindex>1</groupindex>
										</link>
										<link>
											<linkclipref>clipitem-28021</linkclipref>
											<mediatype>audio</mediatype>
											<trackindex>2</trackindex>
											<clipindex>1</clipindex>
											<groupindex>1</groupindex>
										</link>
									</clipitem>
								</track>
							</audio>
						</media>
						<logginginfo>
							<description></description>
							<scene></scene>
							<shottake></shottake>
							<lognote></lognote>
						</logginginfo>
						<labels>
							<label2>Iris</label2>
						</labels>
					</clip>
					<clip id="masterclip-2417" explodedTracks="true">
						<uuid>afc581f7-7fe2-42a0-b6a7-95c0a1ef59e4</uuid>
						<masterclipid>masterclip-2417</masterclipid>
						<ismasterclip>TRUE</ismasterclip>
						<duration>1300</duration>
						<rate>
							<timebase>25</timebase>
							<ntsc>FALSE</ntsc>
						</rate>
						<name>Reveal - 00038_1.mxf</name>
						<media>
							<video>
								<track>
									<clipitem id="clipitem-28022">
										<masterclipid>masterclip-2417</masterclipid>
										<name>Reveal - 00038_1.mxf</name>
										<rate>
											<timebase>25</timebase>
											<ntsc>FALSE</ntsc>
										</rate>
										<alphatype>none</alphatype>
										<pixelaspectratio>square</pixelaspectratio>
										<anamorphic>FALSE</anamorphic>
										<file id="file-2415">
											<name>Reveal - 00038.mp4</name>
											<pathurl>file://localhost/Users/fgiraffe/Premiere%20Pro%20Tuts/Lessons/Assets/Video%20and%20Audio%20Files/Theft%20Unexpected/Reveal%20-%2000038.mp4</pathurl>
											<rate>
												<timebase>25</timebase>
												<ntsc>FALSE</ntsc>
											</rate>
											<duration>1300</duration>
											<timecode>
												<rate>
													<timebase>25</timebase>
													<ntsc>FALSE</ntsc>
												</rate>
												<string>01:56:33:12</string>
												<frame>174837</frame>
												<displayformat>NDF</displayformat>
											</timecode>
											<media>
												<video>
													<samplecharacteristics>
														<rate>
															<timebase>25</timebase>
															<ntsc>FALSE</ntsc>
														</rate>
														<width>1280</width>
														<height>720</height>
														<anamorphic>FALSE</anamorphic>
														<pixelaspectratio>square</pixelaspectratio>
														<fielddominance>none</fielddominance>
													</samplecharacteristics>
												</video>
												<audio>
													<samplecharacteristics>
														<depth>16</depth>
														<samplerate>48000</samplerate>
													</samplecharacteristics>
													<channelcount>1</channelcount>
													<layout>stereo</layout>
													<audiochannel>
														<sourcechannel>1</sourcechannel>
														<channellabel>left</channellabel>
													</audiochannel>
												</audio>
												<audio>
													<samplecharacteristics>
														<depth>16</depth>
														<samplerate>48000</samplerate>
													</samplecharacteristics>
													<channelcount>1</channelcount>
													<layout>stereo</layout>
													<audiochannel>
														<sourcechannel>2</sourcechannel>
														<channellabel>right</channellabel>
													</audiochannel>
												</audio>
											</media>
										</file>
										<link>
											<linkclipref>clipitem-28022</linkclipref>
											<mediatype>video</mediatype>
											<trackindex>1</trackindex>
											<clipindex>1</clipindex>
										</link>
										<link>
											<linkclipref>clipitem-28023</linkclipref>
											<mediatype>audio</mediatype>
											<trackindex>1</trackindex>
											<clipindex>1</clipindex>
										</link>
										<link>
											<linkclipref>clipitem-28024</linkclipref>
											<mediatype>audio</mediatype>
											<trackindex>2</trackindex>
											<clipindex>1</clipindex>
										</link>
									</clipitem>
								</track>
							</video>
							<audio>
								<track>
									<clipitem id="clipitem-28023">
										<masterclipid>masterclip-2417</masterclipid>
										<name>Reveal - 00038_1.mxf</name>
										<rate>
											<timebase>25</timebase>
											<ntsc>FALSE</ntsc>
										</rate>
										<file id="file-2415"/>
										<sourcetrack>
											<mediatype>audio</mediatype>
											<trackindex>1</trackindex>
										</sourcetrack>
										<link>
											<linkclipref>clipitem-28022</linkclipref>
											<mediatype>video</mediatype>
											<trackindex>1</trackindex>
											<clipindex>1</clipindex>
										</link>
										<link>
											<linkclipref>clipitem-28023</linkclipref>
											<mediatype>audio</mediatype>
											<trackindex>1</trackindex>
											<clipindex>1</clipindex>
										</link>
										<link>
											<linkclipref>clipitem-28024</linkclipref>
											<mediatype>audio</mediatype>
											<trackindex>2</trackindex>
											<clipindex>1</clipindex>
										</link>
									</clipitem>
								</track>
								<track>
									<clipitem id="clipitem-28024">
										<masterclipid>masterclip-2417</masterclipid>
										<name>Reveal - 00038_1.mxf</name>
										<rate>
											<timebase>25</timebase>
											<ntsc>FALSE</ntsc>
										</rate>
										<file id="file-2415"/>
										<sourcetrack>
											<mediatype>audio</mediatype>
											<trackindex>2</trackindex>
										</sourcetrack>
										<link>
											<linkclipref>clipitem-28022</linkclipref>
											<mediatype>video</mediatype>
											<trackindex>1</trackindex>
											<clipindex>1</clipindex>
										</link>
										<link>
											<linkclipref>clipitem-28023</linkclipref>
											<mediatype>audio</mediatype>
											<trackindex>1</trackindex>
											<clipindex>1</clipindex>
										</link>
										<link>
											<linkclipref>clipitem-28024</linkclipref>
											<mediatype>audio</mediatype>
											<trackindex>2</trackindex>
											<clipindex>1</clipindex>
										</link>
									</clipitem>
								</track>
							</audio>
						</media>
						<logginginfo>
							<description></description>
							<scene></scene>
							<shottake></shottake>
							<lognote></lognote>
						</logginginfo>
						<labels>
							<label2>Iris</label2>
						</labels>
					</clip>
					<clip id="masterclip-2418" explodedTracks="true">
						<uuid>13e51d97-ccb4-4c74-b544-f6d19ae59b09</uuid>
						<masterclipid>masterclip-2418</masterclipid>
						<ismasterclip>TRUE</ismasterclip>
						<duration>1625</duration>
						<rate>
							<timebase>25</timebase>
							<ntsc>FALSE</ntsc>
						</rate>
						<in>511</in>
						<out>602</out>
						<name>Cutaways - 00042_1.mxf</name>
						<media>
							<video>
								<track>
									<clipitem id="clipitem-28025">
										<masterclipid>masterclip-2418</masterclipid>
										<name>Cutaways - 00042_1.mxf</name>
										<rate>
											<timebase>25</timebase>
											<ntsc>FALSE</ntsc>
										</rate>
										<alphatype>none</alphatype>
										<pixelaspectratio>square</pixelaspectratio>
										<anamorphic>FALSE</anamorphic>
										<file id="file-2416">
											<name>Cutaways - 00042.mp4</name>
											<pathurl>file://localhost/Users/fgiraffe/Premiere%20Pro%20Tuts/Lessons/Assets/Video%20and%20Audio%20Files/Theft%20Unexpected/Cutaways%20-%2000042.mp4</pathurl>
											<rate>
												<timebase>25</timebase>
												<ntsc>FALSE</ntsc>
											</rate>
											<duration>1625</duration>
											<timecode>
												<rate>
													<timebase>25</timebase>
													<ntsc>FALSE</ntsc>
												</rate>
												<string>02:03:29:12</string>
												<frame>185237</frame>
												<displayformat>NDF</displayformat>
											</timecode>
											<media>
												<video>
													<samplecharacteristics>
														<rate>
															<timebase>25</timebase>
															<ntsc>FALSE</ntsc>
														</rate>
														<width>1280</width>
														<height>720</height>
														<anamorphic>FALSE</anamorphic>
														<pixelaspectratio>square</pixelaspectratio>
														<fielddominance>none</fielddominance>
													</samplecharacteristics>
												</video>
												<audio>
													<samplecharacteristics>
														<depth>16</depth>
														<samplerate>48000</samplerate>
													</samplecharacteristics>
													<channelcount>2</channelcount>
												</audio>
											</media>
										</file>
										<link>
											<linkclipref>clipitem-28025</linkclipref>
											<mediatype>video</mediatype>
											<trackindex>1</trackindex>
											<clipindex>1</clipindex>
										</link>
										<link>
											<linkclipref>clipitem-28026</linkclipref>
											<mediatype>audio</mediatype>
											<trackindex>1</trackindex>
											<clipindex>1</clipindex>
											<groupindex>1</groupindex>
										</link>
										<link>
											<linkclipref>clipitem-28027</linkclipref>
											<mediatype>audio</mediatype>
											<trackindex>2</trackindex>
											<clipindex>1</clipindex>
											<groupindex>1</groupindex>
										</link>
									</clipitem>
								</track>
							</video>
							<audio>
								<track>
									<clipitem id="clipitem-28026">
										<masterclipid>masterclip-2418</masterclipid>
										<name>Cutaways - 00042_1.mxf</name>
										<rate>
											<timebase>25</timebase>
											<ntsc>FALSE</ntsc>
										</rate>
										<file id="file-2416"/>
										<sourcetrack>
											<mediatype>audio</mediatype>
											<trackindex>1</trackindex>
										</sourcetrack>
										<link>
											<linkclipref>clipitem-28025</linkclipref>
											<mediatype>video</mediatype>
											<trackindex>1</trackindex>
											<clipindex>1</clipindex>
										</link>
										<link>
											<linkclipref>clipitem-28026</linkclipref>
											<mediatype>audio</mediatype>
											<trackindex>1</trackindex>
											<clipindex>1</clipindex>
											<groupindex>1</groupindex>
										</link>
										<link>
											<linkclipref>clipitem-28027</linkclipref>
											<mediatype>audio</mediatype>
											<trackindex>2</trackindex>
											<clipindex>1</clipindex>
											<groupindex>1</groupindex>
										</link>
									</clipitem>
								</track>
								<track>
									<clipitem id="clipitem-28027">
										<masterclipid>masterclip-2418</masterclipid>
										<name>Cutaways - 00042_1.mxf</name>
										<rate>
											<timebase>25</timebase>
											<ntsc>FALSE</ntsc>
										</rate>
										<file id="file-2416"/>
										<sourcetrack>
											<mediatype>audio</mediatype>
											<trackindex>2</trackindex>
										</sourcetrack>
										<link>
											<linkclipref>clipitem-28025</linkclipref>
											<mediatype>video</mediatype>
											<trackindex>1</trackindex>
											<clipindex>1</clipindex>
										</link>
										<link>
											<linkclipref>clipitem-28026</linkclipref>
											<mediatype>audio</mediatype>
											<trackindex>1</trackindex>
											<clipindex>1</clipindex>
											<groupindex>1</groupindex>
										</link>
										<link>
											<linkclipref>clipitem-28027</linkclipref>
											<mediatype>audio</mediatype>
											<trackindex>2</trackindex>
											<clipindex>1</clipindex>
											<groupindex>1</groupindex>
										</link>
									</clipitem>
								</track>
							</audio>
						</media>
						<logginginfo>
							<description></description>
							<scene></scene>
							<shottake></shottake>
							<lognote></lognote>
						</logginginfo>
						<labels>
							<label2>Iris</label2>
						</labels>
					</clip>
					<sequence id="sequence-54" TL.SQAudioVisibleBase="0" TL.SQVideoVisibleBase="0" TL.SQVisibleBaseTime="0" TL.SQAVDividerPosition="0.5" TL.SQHideShyTracks="0" TL.SQHeaderWidth="184" Monitor.ProgramZoomOut="13208832000000" Monitor.ProgramZoomIn="0" TL.SQTimePerPixel="0.073239436619718309" MZ.EditLine="7620480000000" MZ.Sequence.PreviewFrameSizeHeight="720" MZ.Sequence.PreviewFrameSizeWidth="1280" MZ.Sequence.AudioTimeDisplayFormat="200" MZ.Sequence.PreviewRenderingClassID="1480868673" MZ.Sequence.PreviewRenderingPresetCodec="402" MZ.Sequence.PreviewRenderingPresetPath="EncoderPresets/SequencePreview/cf2f7860-0e56-444f-a64f-74eafec54e44/AVC-Intra Class100 720p.epr" MZ.Sequence.PreviewUseMaxRenderQuality="false" MZ.Sequence.PreviewUseMaxBitDepth="false" MZ.Sequence.EditingModeGUID="cf2f7860-0e56-444f-a64f-74eafec54e44" MZ.Sequence.VideoTimeDisplayFormat="101" MZ.WorkOutPoint="13208832000000" MZ.WorkInPoint="0" MZ.ZeroPoint="0" explodedTracks="true">
						<uuid>47c0b88a-6069-45ef-a3ad-32b3c10e4fd4</uuid>
						<duration>1300</duration>
						<rate>
							<timebase>25</timebase>
							<ntsc>FALSE</ntsc>
						</rate>
						<name>Reveal - 00038_1</name>
						<media>
							<video>
								<format>
									<samplecharacteristics>
										<rate>
											<timebase>25</timebase>
											<ntsc>FALSE</ntsc>
										</rate>
										<codec>
											<name>Apple ProRes 422</name>
											<appspecificdata>
												<appname>Final Cut Pro</appname>
												<appmanufacturer>Apple Inc.</appmanufacturer>
												<appversion>7.0</appversion>
												<data>
													<qtcodec>
														<codecname>Apple ProRes 422</codecname>
														<codectypename>Apple ProRes 422</codectypename>
														<codectypecode>apcn</codectypecode>
														<codecvendorcode>appl</codecvendorcode>
														<spatialquality>1024</spatialquality>
														<temporalquality>0</temporalquality>
														<keyframerate>0</keyframerate>
														<datarate>0</datarate>
													</qtcodec>
												</data>
											</appspecificdata>
										</codec>
										<width>1280</width>
										<height>720</height>
										<anamorphic>FALSE</anamorphic>
										<pixelaspectratio>square</pixelaspectratio>
										<fielddominance>none</fielddominance>
										<colordepth>24</colordepth>
									</samplecharacteristics>
								</format>
								<track TL.SQTrackShy="0" TL.SQTrackExpandedHeight="25" TL.SQTrackExpanded="0" MZ.TrackTargeted="1">
									<clipitem id="clipitem-28028">
										<masterclipid>masterclip-2417</masterclipid>
										<name>Reveal - 00038_1.mxf</name>
										<enabled>TRUE</enabled>
										<duration>1300</duration>
										<rate>
											<timebase>25</timebase>
											<ntsc>FALSE</ntsc>
										</rate>
										<start>0</start>
										<end>1300</end>
										<in>0</in>
										<out>1300</out>
										<pproTicksIn>0</pproTicksIn>
										<pproTicksOut>13208832000000</pproTicksOut>
										<alphatype>none</alphatype>
										<file id="file-2415"/>
										<link>
											<linkclipref>clipitem-28028</linkclipref>
											<mediatype>video</mediatype>
											<trackindex>1</trackindex>
											<clipindex>1</clipindex>
										</link>
										<link>
											<linkclipref>clipitem-28029</linkclipref>
											<mediatype>audio</mediatype>
											<trackindex>1</trackindex>
											<clipindex>1</clipindex>
											<groupindex>1</groupindex>
										</link>
										<link>
											<linkclipref>clipitem-28030</linkclipref>
											<mediatype>audio</mediatype>
											<trackindex>2</trackindex>
											<clipindex>1</clipindex>
											<groupindex>1</groupindex>
										</link>
										<logginginfo>
											<description></description>
											<scene></scene>
											<shottake></shottake>
											<lognote></lognote>
										</logginginfo>
										<labels>
											<label2>Iris</label2>
										</labels>
									</clipitem>
									<enabled>TRUE</enabled>
									<locked>FALSE</locked>
								</track>
								<track TL.SQTrackShy="0" TL.SQTrackExpandedHeight="25" TL.SQTrackExpanded="0" MZ.TrackTargeted="0">
									<enabled>TRUE</enabled>
									<locked>FALSE</locked>
								</track>
								<track TL.SQTrackShy="0" TL.SQTrackExpandedHeight="25" TL.SQTrackExpanded="0" MZ.TrackTargeted="0">
									<enabled>TRUE</enabled>
									<locked>FALSE</locked>
								</track>
							</video>
							<audio>
								<numOutputChannels>2</numOutputChannels>
								<format>
									<samplecharacteristics>
										<depth>16</depth>
										<samplerate>48000</samplerate>
									</samplecharacteristics>
								</format>
								<outputs>
									<group>
										<index>1</index>
										<numchannels>1</numchannels>
										<downmix>0</downmix>
										<channel>
											<index>1</index>
										</channel>
									</group>
									<group>
										<index>2</index>
										<numchannels>1</numchannels>
										<downmix>0</downmix>
										<channel>
											<index>2</index>
										</channel>
									</group>
								</outputs>
								<track TL.SQTrackAudioKeyframeStyle="0" TL.SQTrackShy="0" TL.SQTrackExpandedHeight="25" TL.SQTrackExpanded="0" MZ.TrackTargeted="1" PannerCurrentValue="0.5" PannerIsInverted="true" PannerStartKeyframe="-91445760000000000,0.5,0,0,0,0,0,0" PannerName="Balance" currentExplodedTrackIndex="0" totalExplodedTrackCount="1" premiereTrackType="Stereo">
									<clipitem id="clipitem-28029" premiereChannelType="mono">
										<masterclipid>masterclip-2417</masterclipid>
										<name>Reveal - 00038_1.mxf</name>
										<enabled>TRUE</enabled>
										<duration>1300</duration>
										<rate>
											<timebase>25</timebase>
											<ntsc>FALSE</ntsc>
										</rate>
										<start>0</start>
										<end>1300</end>
										<in>0</in>
										<out>1300</out>
										<pproTicksIn>0</pproTicksIn>
										<pproTicksOut>13208832000000</pproTicksOut>
										<file id="file-2415"/>
										<sourcetrack>
											<mediatype>audio</mediatype>
											<trackindex>1</trackindex>
										</sourcetrack>
										<link>
											<linkclipref>clipitem-28028</linkclipref>
											<mediatype>video</mediatype>
											<trackindex>1</trackindex>
											<clipindex>1</clipindex>
										</link>
										<link>
											<linkclipref>clipitem-28029</linkclipref>
											<mediatype>audio</mediatype>
											<trackindex>1</trackindex>
											<clipindex>1</clipindex>
											<groupindex>1</groupindex>
										</link>
										<link>
											<linkclipref>clipitem-28030</linkclipref>
											<mediatype>audio</mediatype>
											<trackindex>2</trackindex>
											<clipindex>1</clipindex>
											<groupindex>1</groupindex>
										</link>
										<logginginfo>
											<description></description>
											<scene></scene>
											<shottake></shottake>
											<lognote></lognote>
										</logginginfo>
										<labels>
											<label2>Iris</label2>
										</labels>
									</clipitem>
									<enabled>TRUE</enabled>
									<locked>FALSE</locked>
									<outputchannelindex>1</outputchannelindex>
								</track>
								<track TL.SQTrackAudioKeyframeStyle="0" TL.SQTrackShy="0" TL.SQTrackExpandedHeight="25" TL.SQTrackExpanded="0" MZ.TrackTargeted="1" PannerCurrentValue="0.5" PannerIsInverted="true" PannerStartKeyframe="-91445760000000000,0.5,0,0,0,0,0,0" PannerName="Balance" currentExplodedTrackIndex="0" totalExplodedTrackCount="1" premiereTrackType="Stereo">
									<clipitem id="clipitem-28030" premiereChannelType="mono">
										<masterclipid>masterclip-2417</masterclipid>
										<name>Reveal - 00038_1.mxf</name>
										<enabled>TRUE</enabled>
										<duration>1300</duration>
										<rate>
											<timebase>25</timebase>
											<ntsc>FALSE</ntsc>
										</rate>
										<start>0</start>
										<end>1300</end>
										<in>0</in>
										<out>1300</out>
										<pproTicksIn>0</pproTicksIn>
										<pproTicksOut>13208832000000</pproTicksOut>
										<file id="file-2415"/>
										<sourcetrack>
											<mediatype>audio</mediatype>
											<trackindex>2</trackindex>
										</sourcetrack>
										<link>
											<linkclipref>clipitem-28028</linkclipref>
											<mediatype>video</mediatype>
											<trackindex>1</trackindex>
											<clipindex>1</clipindex>
										</link>
										<link>
											<linkclipref>clipitem-28029</linkclipref>
											<mediatype>audio</mediatype>
											<trackindex>1</trackindex>
											<clipindex>1</clipindex>
											<groupindex>1</groupindex>
										</link>
										<link>
											<linkclipref>clipitem-28030</linkclipref>
											<mediatype>audio</mediatype>
											<trackindex>2</trackindex>
											<clipindex>1</clipindex>
											<groupindex>1</groupindex>
										</link>
										<logginginfo>
											<description></description>
											<scene></scene>
											<shottake></shottake>
											<lognote></lognote>
										</logginginfo>
										<labels>
											<label2>Iris</label2>
										</labels>
									</clipitem>
									<enabled>TRUE</enabled>
									<locked>FALSE</locked>
									<outputchannelindex>2</outputchannelindex>
								</track>
								<track TL.SQTrackAudioKeyframeStyle="0" TL.SQTrackShy="0" TL.SQTrackExpandedHeight="25" TL.SQTrackExpanded="0" MZ.TrackTargeted="1" PannerCurrentValue="0.5" PannerIsInverted="true" PannerStartKeyframe="-91445760000000000,0.5,0,0,0,0,0,0" PannerName="Balance" currentExplodedTrackIndex="0" totalExplodedTrackCount="2" premiereTrackType="Stereo">
									<enabled>TRUE</enabled>
									<locked>FALSE</locked>
									<outputchannelindex>1</outputchannelindex>
								</track>
								<track TL.SQTrackAudioKeyframeStyle="0" TL.SQTrackShy="0" TL.SQTrackExpandedHeight="25" TL.SQTrackExpanded="0" MZ.TrackTargeted="1" PannerCurrentValue="0.5" PannerIsInverted="true" PannerStartKeyframe="-91445760000000000,0.5,0,0,0,0,0,0" PannerName="Balance" currentExplodedTrackIndex="1" totalExplodedTrackCount="2" premiereTrackType="Stereo">
									<enabled>TRUE</enabled>
									<locked>FALSE</locked>
									<outputchannelindex>2</outputchannelindex>
								</track>
								<track TL.SQTrackAudioKeyframeStyle="0" TL.SQTrackShy="0" TL.SQTrackExpandedHeight="25" TL.SQTrackExpanded="0" MZ.TrackTargeted="1" PannerCurrentValue="0.5" PannerIsInverted="true" PannerStartKeyframe="-91445760000000000,0.5,0,0,0,0,0,0" PannerName="Balance" currentExplodedTrackIndex="0" totalExplodedTrackCount="2" premiereTrackType="Stereo">
									<enabled>TRUE</enabled>
									<locked>FALSE</locked>
									<outputchannelindex>1</outputchannelindex>
								</track>
								<track TL.SQTrackAudioKeyframeStyle="0" TL.SQTrackShy="0" TL.SQTrackExpandedHeight="25" TL.SQTrackExpanded="0" MZ.TrackTargeted="1" PannerCurrentValue="0.5" PannerIsInverted="true" PannerStartKeyframe="-91445760000000000,0.5,0,0,0,0,0,0" PannerName="Balance" currentExplodedTrackIndex="1" totalExplodedTrackCount="2" premiereTrackType="Stereo">
									<enabled>TRUE</enabled>
									<locked>FALSE</locked>
									<outputchannelindex>2</outputchannelindex>
								</track>
							</audio>
						</media>
						<timecode>
							<rate>
								<timebase>25</timebase>
								<ntsc>FALSE</ntsc>
							</rate>
							<string>00:00:00:00</string>
							<frame>0</frame>
							<displayformat>NDF</displayformat>
						</timecode>
						<labels>
							<label2>Forest</label2>
						</labels>
					</sequence>
					<clip id="masterclip-2419" explodedTracks="true">
						<uuid>01800a62-733c-40c8-86c7-bc50d8676a68</uuid>
						<masterclipid>masterclip-2419</masterclipid>
						<ismasterclip>TRUE</ismasterclip>
						<duration>289</duration>
						<rate>
							<timebase>24</timebase>
							<ntsc>TRUE</ntsc>
						</rate>
						<name>RED Video.R3D</name>
						<media>
							<video>
								<track>
									<clipitem id="clipitem-28031">
										<masterclipid>masterclip-2419</masterclipid>
										<name>RED Video.R3D</name>
										<rate>
											<timebase>24</timebase>
											<ntsc>TRUE</ntsc>
										</rate>
										<alphatype>none</alphatype>
										<pixelaspectratio>HD-(1280x1080)</pixelaspectratio>
										<anamorphic>FALSE</anamorphic>
										<pproOriginalPAR>square</pproOriginalPAR>
										<pproOriginalIsAnamorphic>FALSE</pproOriginalIsAnamorphic>
										<file id="file-2417">
											<name>RED Video.R3D</name>
											<pathurl>file://localhost/Users/fgiraffe/Premiere%20Pro%20Tuts/Lessons/Assets/Video%20and%20Audio%20Files/RED/RED%20Video.R3D</pathurl>
											<rate>
												<timebase>24</timebase>
												<ntsc>TRUE</ntsc>
											</rate>
											<duration>289</duration>
											<timecode>
												<rate>
													<timebase>24</timebase>
													<ntsc>TRUE</ntsc>
												</rate>
												<string>15:48:52:15</string>
												<frame>1366383</frame>
												<displayformat>NDF</displayformat>
											</timecode>
											<media>
												<video>
													<samplecharacteristics>
														<rate>
															<timebase>24</timebase>
															<ntsc>TRUE</ntsc>
														</rate>
														<width>2816</width>
														<height>2304</height>
														<anamorphic>FALSE</anamorphic>
														<pixelaspectratio>HD-(1280x1080)</pixelaspectratio>
														<pproOriginalIsAnamorphic>FALSE</pproOriginalIsAnamorphic>
														<pproOriginalPAR>square</pproOriginalPAR>
														<fielddominance>none</fielddominance>
													</samplecharacteristics>
												</video>
											</media>
										</file>
									</clipitem>
								</track>
							</video>
						</media>
						<logginginfo>
							<description></description>
							<scene></scene>
							<shottake></shottake>
							<lognote>As Shot</lognote>
						</logginginfo>
						<labels>
							<label2>Violet</label2>
						</labels>
					</clip>
					<bin>
						<name>Subclips</name>
						<labels>
							<label2>Mango</label2>
						</labels>
						<children>
							<clip id="masterclip-2420" explodedTracks="true">
								<uuid>81ab90aa-9fd2-4cc6-bced-5882edaf732f</uuid>
								<masterclipid>masterclip-2420</masterclipid>
								<ismasterclip>TRUE</ismasterclip>
								<duration>1625</duration>
								<rate>
									<timebase>25</timebase>
									<ntsc>FALSE</ntsc>
								</rate>
								<name>Packet Moved</name>
								<media>
									<video>
										<track>
											<clipitem id="clipitem-28032">
												<masterclipid>masterclip-2420</masterclipid>
												<name>Packet Moved</name>
												<duration>91</duration>
												<rate>
													<timebase>25</timebase>
													<ntsc>FALSE</ntsc>
												</rate>
												<pproSoftStartOffset>511</pproSoftStartOffset>
												<pproSoftEndOffset>1023</pproSoftEndOffset>
												<alphatype>none</alphatype>
												<pixelaspectratio>square</pixelaspectratio>
												<anamorphic>FALSE</anamorphic>
												<file id="file-2418">
													<name>Cutaways - 00042.mp4</name>
													<pathurl>file://localhost/Users/fgiraffe/Premiere%20Pro%20Tuts/Lessons/Assets/Video%20and%20Audio%20Files/Theft%20Unexpected/Cutaways%20-%2000042.mp4</pathurl>
													<rate>
														<timebase>25</timebase>
														<ntsc>FALSE</ntsc>
													</rate>
													<duration>1625</duration>
													<timecode>
														<rate>
															<timebase>25</timebase>
															<ntsc>FALSE</ntsc>
														</rate>
														<string>02:03:29:12</string>
														<frame>185237</frame>
														<displayformat>NDF</displayformat>
													</timecode>
													<media>
														<video>
															<samplecharacteristics>
																<rate>
																	<timebase>25</timebase>
																	<ntsc>FALSE</ntsc>
																</rate>
																<width>1280</width>
																<height>720</height>
																<anamorphic>FALSE</anamorphic>
																<pixelaspectratio>square</pixelaspectratio>
																<fielddominance>none</fielddominance>
															</samplecharacteristics>
														</video>
														<audio>
															<samplecharacteristics>
																<depth>16</depth>
																<samplerate>48000</samplerate>
															</samplecharacteristics>
															<channelcount>2</channelcount>
														</audio>
													</media>
												</file>
												<link>
													<linkclipref>clipitem-28032</linkclipref>
													<mediatype>video</mediatype>
													<trackindex>1</trackindex>
													<clipindex>1</clipindex>
												</link>
												<link>
													<linkclipref>clipitem-28033</linkclipref>
													<mediatype>audio</mediatype>
													<trackindex>1</trackindex>
													<clipindex>1</clipindex>
													<groupindex>1</groupindex>
												</link>
												<link>
													<linkclipref>clipitem-28034</linkclipref>
													<mediatype>audio</mediatype>
													<trackindex>2</trackindex>
													<clipindex>1</clipindex>
													<groupindex>1</groupindex>
												</link>
											</clipitem>
										</track>
									</video>
									<audio>
										<track>
											<clipitem id="clipitem-28033">
												<masterclipid>masterclip-2420</masterclipid>
												<name>Packet Moved</name>
												<duration>91</duration>
												<rate>
													<timebase>25</timebase>
													<ntsc>FALSE</ntsc>
												</rate>
												<pproSoftStartOffset>511</pproSoftStartOffset>
												<pproSoftEndOffset>1023</pproSoftEndOffset>
												<file id="file-2418"/>
												<sourcetrack>
													<mediatype>audio</mediatype>
													<trackindex>1</trackindex>
												</sourcetrack>
												<link>
													<linkclipref>clipitem-28032</linkclipref>
													<mediatype>video</mediatype>
													<trackindex>1</trackindex>
													<clipindex>1</clipindex>
												</link>
												<link>
													<linkclipref>clipitem-28033</linkclipref>
													<mediatype>audio</mediatype>
													<trackindex>1</trackindex>
													<clipindex>1</clipindex>
													<groupindex>1</groupindex>
												</link>
												<link>
													<linkclipref>clipitem-28034</linkclipref>
													<mediatype>audio</mediatype>
													<trackindex>2</trackindex>
													<clipindex>1</clipindex>
													<groupindex>1</groupindex>
												</link>
											</clipitem>
										</track>
										<track>
											<clipitem id="clipitem-28034">
												<masterclipid>masterclip-2420</masterclipid>
												<name>Packet Moved</name>
												<duration>91</duration>
												<rate>
													<timebase>25</timebase>
													<ntsc>FALSE</ntsc>
												</rate>
												<pproSoftStartOffset>511</pproSoftStartOffset>
												<pproSoftEndOffset>1023</pproSoftEndOffset>
												<file id="file-2418"/>
												<sourcetrack>
													<mediatype>audio</mediatype>
													<trackindex>2</trackindex>
												</sourcetrack>
												<link>
													<linkclipref>clipitem-28032</linkclipref>
													<mediatype>video</mediatype>
													<trackindex>1</trackindex>
													<clipindex>1</clipindex>
												</link>
												<link>
													<linkclipref>clipitem-28033</linkclipref>
													<mediatype>audio</mediatype>
													<trackindex>1</trackindex>
													<clipindex>1</clipindex>
													<groupindex>1</groupindex>
												</link>
												<link>
													<linkclipref>clipitem-28034</linkclipref>
													<mediatype>audio</mediatype>
													<trackindex>2</trackindex>
													<clipindex>1</clipindex>
													<groupindex>1</groupindex>
												</link>
											</clipitem>
										</track>
									</audio>
								</media>
								<logginginfo>
									<description></description>
									<scene></scene>
									<shottake></shottake>
									<lognote></lognote>
								</logginginfo>
								<labels>
									<label2>Iris</label2>
								</labels>
							</clip>
						</children>
					</bin>
					<sequence id="sequence-55" TL.SQAudioVisibleBase="0" TL.SQVideoVisibleBase="0" TL.SQVisibleBaseTime="4764828603997" TL.SQAVDividerPosition="0.5" TL.SQHideShyTracks="0" TL.SQHeaderWidth="184" Monitor.ProgramZoomOut="6675540480000" Monitor.ProgramZoomIn="0" TL.SQTimePerPixel="0.026413532906348066" MZ.EditLine="5232729600000" MZ.Sequence.PreviewFrameSizeHeight="720" MZ.Sequence.PreviewFrameSizeWidth="1280" MZ.Sequence.AudioTimeDisplayFormat="200" MZ.Sequence.PreviewRenderingClassID="1480868673" MZ.Sequence.PreviewRenderingPresetCodec="402" MZ.Sequence.PreviewRenderingPresetPath="EncoderPresets/SequencePreview/cf2f7860-0e56-444f-a64f-74eafec54e44/AVC-Intra Class100 720p.epr" MZ.Sequence.PreviewUseMaxRenderQuality="false" MZ.Sequence.PreviewUseMaxBitDepth="false" MZ.Sequence.EditingModeGUID="cf2f7860-0e56-444f-a64f-74eafec54e44" MZ.Sequence.VideoTimeDisplayFormat="101" MZ.WorkOutPoint="6675540480000" MZ.WorkInPoint="0" MZ.ZeroPoint="0" explodedTracks="true">
						<uuid>36f28e06-79f5-4d95-97f4-8a6c26875a9d</uuid>
						<duration>657</duration>
						<rate>
							<timebase>25</timebase>
							<ntsc>FALSE</ntsc>
						</rate>
						<name>Theft Unexpected</name>
						<media>
							<video>
								<format>
									<samplecharacteristics>
										<rate>
											<timebase>25</timebase>
											<ntsc>FALSE</ntsc>
										</rate>
										<codec>
											<name>Apple ProRes 422</name>
											<appspecificdata>
												<appname>Final Cut Pro</appname>
												<appmanufacturer>Apple Inc.</appmanufacturer>
												<appversion>7.0</appversion>
												<data>
													<qtcodec>
														<codecname>Apple ProRes 422</codecname>
														<codectypename>Apple ProRes 422</codectypename>
														<codectypecode>apcn</codectypecode>
														<codecvendorcode>appl</codecvendorcode>
														<spatialquality>1024</spatialquality>
														<temporalquality>0</temporalquality>
														<keyframerate>0</keyframerate>
														<datarate>0</datarate>
													</qtcodec>
												</data>
											</appspecificdata>
										</codec>
										<width>1280</width>
										<height>720</height>
										<anamorphic>FALSE</anamorphic>
										<pixelaspectratio>square</pixelaspectratio>
										<fielddominance>none</fielddominance>
										<colordepth>24</colordepth>
									</samplecharacteristics>
								</format>
								<track TL.SQTrackShy="0" TL.SQTrackExpandedHeight="25" TL.SQTrackExpanded="1" MZ.TrackTargeted="1">
									<clipitem id="clipitem-28035">
										<masterclipid>masterclip-2415</masterclipid>
										<name>Excuse Me - 00035_1.mxf</name>
										<enabled>TRUE</enabled>
										<duration>780</duration>
										<rate>
											<timebase>25</timebase>
											<ntsc>FALSE</ntsc>
										</rate>
										<start>0</start>
										<end>66</end>
										<in>430</in>
										<out>496</out>
										<pproTicksIn>4369075200000</pproTicksIn>
										<pproTicksOut>5039677440000</pproTicksOut>
										<alphatype>none</alphatype>
										<file id="file-2413"/>
										<link>
											<linkclipref>clipitem-28035</linkclipref>
											<mediatype>video</mediatype>
											<trackindex>1</trackindex>
											<clipindex>1</clipindex>
										</link>
										<link>
											<linkclipref>clipitem-28043</linkclipref>
											<mediatype>audio</mediatype>
											<trackindex>1</trackindex>
											<clipindex>1</clipindex>
											<groupindex>1</groupindex>
										</link>
										<link>
											<linkclipref>clipitem-28051</linkclipref>
											<mediatype>audio</mediatype>
											<trackindex>2</trackindex>
											<clipindex>1</clipindex>
											<groupindex>1</groupindex>
										</link>
										<logginginfo>
											<description></description>
											<scene></scene>
											<shottake></shottake>
											<lognote></lognote>
										</logginginfo>
										<labels>
											<label2>Iris</label2>
										</labels>
									</clipitem>
									<clipitem id="clipitem-28036">
										<masterclipid>masterclip-2411</masterclipid>
										<name>Mid Suit - 00008_1.mxf</name>
										<enabled>TRUE</enabled>
										<duration>4706</duration>
										<rate>
											<timebase>25</timebase>
											<ntsc>FALSE</ntsc>
										</rate>
										<start>66</start>
										<end>117</end>
										<in>641</in>
										<out>692</out>
										<pproTicksIn>6512970240000</pproTicksIn>
										<pproTicksOut>7031162880000</pproTicksOut>
										<alphatype>none</alphatype>
										<file id="file-2409"/>
										<link>
											<linkclipref>clipitem-28036</linkclipref>
											<mediatype>video</mediatype>
											<trackindex>1</trackindex>
											<clipindex>2</clipindex>
										</link>
										<link>
											<linkclipref>clipitem-28044</linkclipref>
											<mediatype>audio</mediatype>
											<trackindex>1</trackindex>
											<clipindex>2</clipindex>
											<groupindex>1</groupindex>
										</link>
										<link>
											<linkclipref>clipitem-28052</linkclipref>
											<mediatype>audio</mediatype>
											<trackindex>2</trackindex>
											<clipindex>2</clipindex>
											<groupindex>1</groupindex>
										</link>
										<logginginfo>
											<description></description>
											<scene>1</scene>
											<shottake></shottake>
											<lognote></lognote>
										</logginginfo>
										<labels>
											<label2>Iris</label2>
										</labels>
									</clipitem>
									<clipitem id="clipitem-28037">
										<masterclipid>masterclip-2415</masterclipid>
										<name>Excuse Me - 00035_1.mxf</name>
										<enabled>TRUE</enabled>
										<duration>780</duration>
										<rate>
											<timebase>25</timebase>
											<ntsc>FALSE</ntsc>
										</rate>
										<start>117</start>
										<end>144</end>
										<in>496</in>
										<out>523</out>
										<pproTicksIn>5039677440000</pproTicksIn>
										<pproTicksOut>5314014720000</pproTicksOut>
										<alphatype>none</alphatype>
										<file id="file-2413"/>
										<link>
											<linkclipref>clipitem-28037</linkclipref>
											<mediatype>video</mediatype>
											<trackindex>1</trackindex>
											<clipindex>3</clipindex>
										</link>
										<link>
											<linkclipref>clipitem-28045</linkclipref>
											<mediatype>audio</mediatype>
											<trackindex>1</trackindex>
											<clipindex>3</clipindex>
											<groupindex>1</groupindex>
										</link>
										<link>
											<linkclipref>clipitem-28053</linkclipref>
											<mediatype>audio</mediatype>
											<trackindex>2</trackindex>
											<clipindex>3</clipindex>
											<groupindex>1</groupindex>
										</link>
										<logginginfo>
											<description></description>
											<scene></scene>
											<shottake></shottake>
											<lognote></lognote>
										</logginginfo>
										<labels>
											<label2>Iris</label2>
										</labels>
									</clipitem>
									<clipitem id="clipitem-28038">
										<masterclipid>masterclip-2412</masterclipid>
										<name>HS Suit - 00017_1.mxf</name>
										<enabled>TRUE</enabled>
										<duration>4628</duration>
										<rate>
											<timebase>25</timebase>
											<ntsc>FALSE</ntsc>
										</rate>
										<start>144</start>
										<end>193</end>
										<in>984</in>
										<out>1033</out>
										<pproTicksIn>9998069760000</pproTicksIn>
										<pproTicksOut>10495941120000</pproTicksOut>
										<alphatype>none</alphatype>
										<file id="file-2410"/>
										<link>
											<linkclipref>clipitem-28038</linkclipref>
											<mediatype>video</mediatype>
											<trackindex>1</trackindex>
											<clipindex>4</clipindex>
										</link>
										<link>
											<linkclipref>clipitem-28046</linkclipref>
											<mediatype>audio</mediatype>
											<trackindex>1</trackindex>
											<clipindex>4</clipindex>
											<groupindex>1</groupindex>
										</link>
										<link>
											<linkclipref>clipitem-28054</linkclipref>
											<mediatype>audio</mediatype>
											<trackindex>2</trackindex>
											<clipindex>4</clipindex>
											<groupindex>1</groupindex>
										</link>
										<logginginfo>
											<description></description>
											<scene>1</scene>
											<shottake></shottake>
											<lognote></lognote>
										</logginginfo>
										<labels>
											<label2>Iris</label2>
										</labels>
									</clipitem>
									<clipitem id="clipitem-28039">
										<masterclipid>masterclip-2415</masterclipid>
										<name>Excuse Me - 00035_1.mxf</name>
										<enabled>TRUE</enabled>
										<duration>780</duration>
										<rate>
											<timebase>25</timebase>
											<ntsc>FALSE</ntsc>
										</rate>
										<start>193</start>
										<end>230</end>
										<in>572</in>
										<out>609</out>
										<pproTicksIn>5811886080000</pproTicksIn>
										<pproTicksOut>6187829760000</pproTicksOut>
										<alphatype>none</alphatype>
										<file id="file-2413"/>
										<link>
											<linkclipref>clipitem-28039</linkclipref>
											<mediatype>video</mediatype>
											<trackindex>1</trackindex>
											<clipindex>5</clipindex>
										</link>
										<link>
											<linkclipref>clipitem-28047</linkclipref>
											<mediatype>audio</mediatype>
											<trackindex>1</trackindex>
											<clipindex>5</clipindex>
											<groupindex>1</groupindex>
										</link>
										<link>
											<linkclipref>clipitem-28055</linkclipref>
											<mediatype>audio</mediatype>
											<trackindex>2</trackindex>
											<clipindex>5</clipindex>
											<groupindex>1</groupindex>
										</link>
										<logginginfo>
											<description></description>
											<scene></scene>
											<shottake></shottake>
											<lognote></lognote>
										</logginginfo>
										<labels>
											<label2>Iris</label2>
										</labels>
									</clipitem>
									<clipitem id="clipitem-28040">
										<masterclipid>masterclip-2413</masterclipid>
										<name>Mid John - 00028_1.mxf</name>
										<enabled>TRUE</enabled>
										<duration>4641</duration>
										<rate>
											<timebase>25</timebase>
											<ntsc>FALSE</ntsc>
										</rate>
										<start>230</start>
										<end>350</end>
										<in>729</in>
										<out>849</out>
										<pproTicksIn>7407106560000</pproTicksIn>
										<pproTicksOut>8626383360000</pproTicksOut>
										<alphatype>none</alphatype>
										<file id="file-2411"/>
										<link>
											<linkclipref>clipitem-28040</linkclipref>
											<mediatype>video</mediatype>
											<trackindex>1</trackindex>
											<clipindex>6</clipindex>
										</link>
										<link>
											<linkclipref>clipitem-28048</linkclipref>
											<mediatype>audio</mediatype>
											<trackindex>1</trackindex>
											<clipindex>6</clipindex>
											<groupindex>1</groupindex>
										</link>
										<link>
											<linkclipref>clipitem-28056</linkclipref>
											<mediatype>audio</mediatype>
											<trackindex>2</trackindex>
											<clipindex>6</clipindex>
											<groupindex>1</groupindex>
										</link>
										<logginginfo>
											<description></description>
											<scene>1</scene>
											<shottake></shottake>
											<lognote></lognote>
										</logginginfo>
										<labels>
											<label2>Iris</label2>
										</labels>
									</clipitem>
									<clipitem id="clipitem-28041">
										<masterclipid>masterclip-2411</masterclipid>
										<name>Mid Suit - 00008_1.mxf</name>
										<enabled>TRUE</enabled>
										<duration>4706</duration>
										<rate>
											<timebase>25</timebase>
											<ntsc>FALSE</ntsc>
										</rate>
										<start>350</start>
										<end>476</end>
										<in>866</in>
										<out>992</out>
										<pproTicksIn>8799114240000</pproTicksIn>
										<pproTicksOut>10079354880000</pproTicksOut>
										<alphatype>none</alphatype>
										<file id="file-2409"/>
										<link>
											<linkclipref>clipitem-28041</linkclipref>
											<mediatype>video</mediatype>
											<trackindex>1</trackindex>
											<clipindex>7</clipindex>
										</link>
										<link>
											<linkclipref>clipitem-28049</linkclipref>
											<mediatype>audio</mediatype>
											<trackindex>1</trackindex>
											<clipindex>7</clipindex>
											<groupindex>1</groupindex>
										</link>
										<link>
											<linkclipref>clipitem-28057</linkclipref>
											<mediatype>audio</mediatype>
											<trackindex>2</trackindex>
											<clipindex>7</clipindex>
											<groupindex>1</groupindex>
										</link>
										<logginginfo>
											<description></description>
											<scene>1</scene>
											<shottake></shottake>
											<lognote></lognote>
										</logginginfo>
										<labels>
											<label2>Iris</label2>
										</labels>
									</clipitem>
									<clipitem id="clipitem-28042">
										<masterclipid>masterclip-2413</masterclipid>
										<name>Mid John - 00028_1.mxf</name>
										<enabled>TRUE</enabled>
										<duration>4641</duration>
										<rate>
											<timebase>25</timebase>
											<ntsc>FALSE</ntsc>
										</rate>
										<start>476</start>
										<end>657</end>
										<in>849</in>
										<out>1030</out>
										<pproTicksIn>8626383360000</pproTicksIn>
										<pproTicksOut>10465459200000</pproTicksOut>
										<alphatype>none</alphatype>
										<file id="file-2411"/>
										<link>
											<linkclipref>clipitem-28042</linkclipref>
											<mediatype>video</mediatype>
											<trackindex>1</trackindex>
											<clipindex>8</clipindex>
										</link>
										<link>
											<linkclipref>clipitem-28050</linkclipref>
											<mediatype>audio</mediatype>
											<trackindex>1</trackindex>
											<clipindex>8</clipindex>
											<groupindex>1</groupindex>
										</link>
										<link>
											<linkclipref>clipitem-28058</linkclipref>
											<mediatype>audio</mediatype>
											<trackindex>2</trackindex>
											<clipindex>8</clipindex>
											<groupindex>1</groupindex>
										</link>
										<logginginfo>
											<description></description>
											<scene>1</scene>
											<shottake></shottake>
											<lognote></lognote>
										</logginginfo>
										<labels>
											<label2>Iris</label2>
										</labels>
									</clipitem>
									<enabled>TRUE</enabled>
									<locked>FALSE</locked>
								</track>
								<track TL.SQTrackShy="0" TL.SQTrackExpandedHeight="25" TL.SQTrackExpanded="0" MZ.TrackTargeted="1">
									<enabled>TRUE</enabled>
									<locked>FALSE</locked>
								</track>
								<track TL.SQTrackShy="0" TL.SQTrackExpandedHeight="25" TL.SQTrackExpanded="0" MZ.TrackTargeted="1">
									<enabled>TRUE</enabled>
									<locked>FALSE</locked>
								</track>
							</video>
							<audio>
								<numOutputChannels>2</numOutputChannels>
								<format>
									<samplecharacteristics>
										<depth>16</depth>
										<samplerate>48000</samplerate>
									</samplecharacteristics>
								</format>
								<outputs>
									<group>
										<index>1</index>
										<numchannels>1</numchannels>
										<downmix>0</downmix>
										<channel>
											<index>1</index>
										</channel>
									</group>
									<group>
										<index>2</index>
										<numchannels>1</numchannels>
										<downmix>0</downmix>
										<channel>
											<index>2</index>
										</channel>
									</group>
								</outputs>
								<track TL.SQTrackAudioKeyframeStyle="0" TL.SQTrackShy="0" TL.SQTrackExpandedHeight="25" TL.SQTrackExpanded="1" MZ.TrackTargeted="1" PannerCurrentValue="0.5" PannerIsInverted="true" PannerStartKeyframe="-91445760000000000,0.5,0,0,0,0,0,0" PannerName="Balance" currentExplodedTrackIndex="0" totalExplodedTrackCount="2" premiereTrackType="Stereo">
									<clipitem id="clipitem-28043" premiereChannelType="stereo">
										<masterclipid>masterclip-2415</masterclipid>
										<name>Excuse Me - 00035_1.mxf</name>
										<enabled>TRUE</enabled>
										<duration>780</duration>
										<rate>
											<timebase>25</timebase>
											<ntsc>FALSE</ntsc>
										</rate>
										<start>0</start>
										<end>66</end>
										<in>430</in>
										<out>496</out>
										<pproTicksIn>4369075200000</pproTicksIn>
										<pproTicksOut>5039677440000</pproTicksOut>
										<file id="file-2413"/>
										<sourcetrack>
											<mediatype>audio</mediatype>
											<trackindex>1</trackindex>
										</sourcetrack>
										<link>
											<linkclipref>clipitem-28035</linkclipref>
											<mediatype>video</mediatype>
											<trackindex>1</trackindex>
											<clipindex>1</clipindex>
										</link>
										<link>
											<linkclipref>clipitem-28043</linkclipref>
											<mediatype>audio</mediatype>
											<trackindex>1</trackindex>
											<clipindex>1</clipindex>
											<groupindex>1</groupindex>
										</link>
										<link>
											<linkclipref>clipitem-28051</linkclipref>
											<mediatype>audio</mediatype>
											<trackindex>2</trackindex>
											<clipindex>1</clipindex>
											<groupindex>1</groupindex>
										</link>
										<logginginfo>
											<description></description>
											<scene></scene>
											<shottake></shottake>
											<lognote></lognote>
										</logginginfo>
										<labels>
											<label2>Iris</label2>
										</labels>
									</clipitem>
									<clipitem id="clipitem-28044" premiereChannelType="stereo">
										<masterclipid>masterclip-2411</masterclipid>
										<name>Mid Suit - 00008_1.mxf</name>
										<enabled>TRUE</enabled>
										<duration>4706</duration>
										<rate>
											<timebase>25</timebase>
											<ntsc>FALSE</ntsc>
										</rate>
										<start>66</start>
										<end>117</end>
										<in>641</in>
										<out>692</out>
										<pproTicksIn>6512970240000</pproTicksIn>
										<pproTicksOut>7031162880000</pproTicksOut>
										<file id="file-2409"/>
										<sourcetrack>
											<mediatype>audio</mediatype>
											<trackindex>1</trackindex>
										</sourcetrack>
										<link>
											<linkclipref>clipitem-28036</linkclipref>
											<mediatype>video</mediatype>
											<trackindex>1</trackindex>
											<clipindex>2</clipindex>
										</link>
										<link>
											<linkclipref>clipitem-28044</linkclipref>
											<mediatype>audio</mediatype>
											<trackindex>1</trackindex>
											<clipindex>2</clipindex>
											<groupindex>1</groupindex>
										</link>
										<link>
											<linkclipref>clipitem-28052</linkclipref>
											<mediatype>audio</mediatype>
											<trackindex>2</trackindex>
											<clipindex>2</clipindex>
											<groupindex>1</groupindex>
										</link>
										<logginginfo>
											<description></description>
											<scene>1</scene>
											<shottake></shottake>
											<lognote></lognote>
										</logginginfo>
										<labels>
											<label2>Iris</label2>
										</labels>
									</clipitem>
									<clipitem id="clipitem-28045" premiereChannelType="stereo">
										<masterclipid>masterclip-2415</masterclipid>
										<name>Excuse Me - 00035_1.mxf</name>
										<enabled>TRUE</enabled>
										<duration>780</duration>
										<rate>
											<timebase>25</timebase>
											<ntsc>FALSE</ntsc>
										</rate>
										<start>117</start>
										<end>144</end>
										<in>496</in>
										<out>523</out>
										<pproTicksIn>5039677440000</pproTicksIn>
										<pproTicksOut>5314014720000</pproTicksOut>
										<file id="file-2413"/>
										<sourcetrack>
											<mediatype>audio</mediatype>
											<trackindex>1</trackindex>
										</sourcetrack>
										<link>
											<linkclipref>clipitem-28037</linkclipref>
											<mediatype>video</mediatype>
											<trackindex>1</trackindex>
											<clipindex>3</clipindex>
										</link>
										<link>
											<linkclipref>clipitem-28045</linkclipref>
											<mediatype>audio</mediatype>
											<trackindex>1</trackindex>
											<clipindex>3</clipindex>
											<groupindex>1</groupindex>
										</link>
										<link>
											<linkclipref>clipitem-28053</linkclipref>
											<mediatype>audio</mediatype>
											<trackindex>2</trackindex>
											<clipindex>3</clipindex>
											<groupindex>1</groupindex>
										</link>
										<logginginfo>
											<description></description>
											<scene></scene>
											<shottake></shottake>
											<lognote></lognote>
										</logginginfo>
										<labels>
											<label2>Iris</label2>
										</labels>
									</clipitem>
									<clipitem id="clipitem-28046" premiereChannelType="stereo">
										<masterclipid>masterclip-2412</masterclipid>
										<name>HS Suit - 00017_1.mxf</name>
										<enabled>TRUE</enabled>
										<duration>4628</duration>
										<rate>
											<timebase>25</timebase>
											<ntsc>FALSE</ntsc>
										</rate>
										<start>144</start>
										<end>193</end>
										<in>984</in>
										<out>1033</out>
										<pproTicksIn>9998069760000</pproTicksIn>
										<pproTicksOut>10495941120000</pproTicksOut>
										<file id="file-2410"/>
										<sourcetrack>
											<mediatype>audio</mediatype>
											<trackindex>1</trackindex>
										</sourcetrack>
										<link>
											<linkclipref>clipitem-28038</linkclipref>
											<mediatype>video</mediatype>
											<trackindex>1</trackindex>
											<clipindex>4</clipindex>
										</link>
										<link>
											<linkclipref>clipitem-28046</linkclipref>
											<mediatype>audio</mediatype>
											<trackindex>1</trackindex>
											<clipindex>4</clipindex>
											<groupindex>1</groupindex>
										</link>
										<link>
											<linkclipref>clipitem-28054</linkclipref>
											<mediatype>audio</mediatype>
											<trackindex>2</trackindex>
											<clipindex>4</clipindex>
											<groupindex>1</groupindex>
										</link>
										<logginginfo>
											<description></description>
											<scene>1</scene>
											<shottake></shottake>
											<lognote></lognote>
										</logginginfo>
										<labels>
											<label2>Iris</label2>
										</labels>
									</clipitem>
									<clipitem id="clipitem-28047" premiereChannelType="stereo">
										<masterclipid>masterclip-2415</masterclipid>
										<name>Excuse Me - 00035_1.mxf</name>
										<enabled>TRUE</enabled>
										<duration>780</duration>
										<rate>
											<timebase>25</timebase>
											<ntsc>FALSE</ntsc>
										</rate>
										<start>193</start>
										<end>230</end>
										<in>572</in>
										<out>609</out>
										<pproTicksIn>5811886080000</pproTicksIn>
										<pproTicksOut>6187829760000</pproTicksOut>
										<file id="file-2413"/>
										<sourcetrack>
											<mediatype>audio</mediatype>
											<trackindex>1</trackindex>
										</sourcetrack>
										<link>
											<linkclipref>clipitem-28039</linkclipref>
											<mediatype>video</mediatype>
											<trackindex>1</trackindex>
											<clipindex>5</clipindex>
										</link>
										<link>
											<linkclipref>clipitem-28047</linkclipref>
											<mediatype>audio</mediatype>
											<trackindex>1</trackindex>
											<clipindex>5</clipindex>
											<groupindex>1</groupindex>
										</link>
										<link>
											<linkclipref>clipitem-28055</linkclipref>
											<mediatype>audio</mediatype>
											<trackindex>2</trackindex>
											<clipindex>5</clipindex>
											<groupindex>1</groupindex>
										</link>
										<logginginfo>
											<description></description>
											<scene></scene>
											<shottake></shottake>
											<lognote></lognote>
										</logginginfo>
										<labels>
											<label2>Iris</label2>
										</labels>
									</clipitem>
									<clipitem id="clipitem-28048" premiereChannelType="stereo">
										<masterclipid>masterclip-2413</masterclipid>
										<name>Mid John - 00028_1.mxf</name>
										<enabled>TRUE</enabled>
										<duration>4641</duration>
										<rate>
											<timebase>25</timebase>
											<ntsc>FALSE</ntsc>
										</rate>
										<start>230</start>
										<end>350</end>
										<in>729</in>
										<out>849</out>
										<pproTicksIn>7407106560000</pproTicksIn>
										<pproTicksOut>8626383360000</pproTicksOut>
										<file id="file-2411"/>
										<sourcetrack>
											<mediatype>audio</mediatype>
											<trackindex>1</trackindex>
										</sourcetrack>
										<link>
											<linkclipref>clipitem-28040</linkclipref>
											<mediatype>video</mediatype>
											<trackindex>1</trackindex>
											<clipindex>6</clipindex>
										</link>
										<link>
											<linkclipref>clipitem-28048</linkclipref>
											<mediatype>audio</mediatype>
											<trackindex>1</trackindex>
											<clipindex>6</clipindex>
											<groupindex>1</groupindex>
										</link>
										<link>
											<linkclipref>clipitem-28056</linkclipref>
											<mediatype>audio</mediatype>
											<trackindex>2</trackindex>
											<clipindex>6</clipindex>
											<groupindex>1</groupindex>
										</link>
										<logginginfo>
											<description></description>
											<scene>1</scene>
											<shottake></shottake>
											<lognote></lognote>
										</logginginfo>
										<labels>
											<label2>Iris</label2>
										</labels>
									</clipitem>
									<clipitem id="clipitem-28049" premiereChannelType="stereo">
										<masterclipid>masterclip-2411</masterclipid>
										<name>Mid Suit - 00008_1.mxf</name>
										<enabled>TRUE</enabled>
										<duration>4706</duration>
										<rate>
											<timebase>25</timebase>
											<ntsc>FALSE</ntsc>
										</rate>
										<start>350</start>
										<end>476</end>
										<in>866</in>
										<out>992</out>
										<pproTicksIn>8799114240000</pproTicksIn>
										<pproTicksOut>10079354880000</pproTicksOut>
										<file id="file-2409"/>
										<sourcetrack>
											<mediatype>audio</mediatype>
											<trackindex>1</trackindex>
										</sourcetrack>
										<link>
											<linkclipref>clipitem-28041</linkclipref>
											<mediatype>video</mediatype>
											<trackindex>1</trackindex>
											<clipindex>7</clipindex>
										</link>
										<link>
											<linkclipref>clipitem-28049</linkclipref>
											<mediatype>audio</mediatype>
											<trackindex>1</trackindex>
											<clipindex>7</clipindex>
											<groupindex>1</groupindex>
										</link>
										<link>
											<linkclipref>clipitem-28057</linkclipref>
											<mediatype>audio</mediatype>
											<trackindex>2</trackindex>
											<clipindex>7</clipindex>
											<groupindex>1</groupindex>
										</link>
										<logginginfo>
											<description></description>
											<scene>1</scene>
											<shottake></shottake>
											<lognote></lognote>
										</logginginfo>
										<labels>
											<label2>Iris</label2>
										</labels>
									</clipitem>
									<clipitem id="clipitem-28050" premiereChannelType="stereo">
										<masterclipid>masterclip-2413</masterclipid>
										<name>Mid John - 00028_1.mxf</name>
										<enabled>TRUE</enabled>
										<duration>4641</duration>
										<rate>
											<timebase>25</timebase>
											<ntsc>FALSE</ntsc>
										</rate>
										<start>476</start>
										<end>657</end>
										<in>849</in>
										<out>1030</out>
										<pproTicksIn>8626383360000</pproTicksIn>
										<pproTicksOut>10465459200000</pproTicksOut>
										<file id="file-2411"/>
										<sourcetrack>
											<mediatype>audio</mediatype>
											<trackindex>1</trackindex>
										</sourcetrack>
										<link>
											<linkclipref>clipitem-28042</linkclipref>
											<mediatype>video</mediatype>
											<trackindex>1</trackindex>
											<clipindex>8</clipindex>
										</link>
										<link>
											<linkclipref>clipitem-28050</linkclipref>
											<mediatype>audio</mediatype>
											<trackindex>1</trackindex>
											<clipindex>8</clipindex>
											<groupindex>1</groupindex>
										</link>
										<link>
											<linkclipref>clipitem-28058</linkclipref>
											<mediatype>audio</mediatype>
											<trackindex>2</trackindex>
											<clipindex>8</clipindex>
											<groupindex>1</groupindex>
										</link>
										<logginginfo>
											<description></description>
											<scene>1</scene>
											<shottake></shottake>
											<lognote></lognote>
										</logginginfo>
										<labels>
											<label2>Iris</label2>
										</labels>
									</clipitem>
									<enabled>TRUE</enabled>
									<locked>FALSE</locked>
									<outputchannelindex>1</outputchannelindex>
								</track>
								<track TL.SQTrackAudioKeyframeStyle="0" TL.SQTrackShy="0" TL.SQTrackExpandedHeight="25" TL.SQTrackExpanded="1" MZ.TrackTargeted="1" PannerCurrentValue="0.5" PannerIsInverted="true" PannerStartKeyframe="-91445760000000000,0.5,0,0,0,0,0,0" PannerName="Balance" currentExplodedTrackIndex="1" totalExplodedTrackCount="2" premiereTrackType="Stereo">
									<clipitem id="clipitem-28051" premiereChannelType="stereo">
										<masterclipid>masterclip-2415</masterclipid>
										<name>Excuse Me - 00035_1.mxf</name>
										<enabled>TRUE</enabled>
										<duration>780</duration>
										<rate>
											<timebase>25</timebase>
											<ntsc>FALSE</ntsc>
										</rate>
										<start>0</start>
										<end>66</end>
										<in>430</in>
										<out>496</out>
										<pproTicksIn>4369075200000</pproTicksIn>
										<pproTicksOut>5039677440000</pproTicksOut>
										<file id="file-2413"/>
										<sourcetrack>
											<mediatype>audio</mediatype>
											<trackindex>2</trackindex>
										</sourcetrack>
										<link>
											<linkclipref>clipitem-28035</linkclipref>
											<mediatype>video</mediatype>
											<trackindex>1</trackindex>
											<clipindex>1</clipindex>
										</link>
										<link>
											<linkclipref>clipitem-28043</linkclipref>
											<mediatype>audio</mediatype>
											<trackindex>1</trackindex>
											<clipindex>1</clipindex>
											<groupindex>1</groupindex>
										</link>
										<link>
											<linkclipref>clipitem-28051</linkclipref>
											<mediatype>audio</mediatype>
											<trackindex>2</trackindex>
											<clipindex>1</clipindex>
											<groupindex>1</groupindex>
										</link>
										<logginginfo>
											<description></description>
											<scene></scene>
											<shottake></shottake>
											<lognote></lognote>
										</logginginfo>
										<labels>
											<label2>Iris</label2>
										</labels>
									</clipitem>
									<clipitem id="clipitem-28052" premiereChannelType="stereo">
										<masterclipid>masterclip-2411</masterclipid>
										<name>Mid Suit - 00008_1.mxf</name>
										<enabled>TRUE</enabled>
										<duration>4706</duration>
										<rate>
											<timebase>25</timebase>
											<ntsc>FALSE</ntsc>
										</rate>
										<start>66</start>
										<end>117</end>
										<in>641</in>
										<out>692</out>
										<pproTicksIn>6512970240000</pproTicksIn>
										<pproTicksOut>7031162880000</pproTicksOut>
										<file id="file-2409"/>
										<sourcetrack>
											<mediatype>audio</mediatype>
											<trackindex>2</trackindex>
										</sourcetrack>
										<link>
											<linkclipref>clipitem-28036</linkclipref>
											<mediatype>video</mediatype>
											<trackindex>1</trackindex>
											<clipindex>2</clipindex>
										</link>
										<link>
											<linkclipref>clipitem-28044</linkclipref>
											<mediatype>audio</mediatype>
											<trackindex>1</trackindex>
											<clipindex>2</clipindex>
											<groupindex>1</groupindex>
										</link>
										<link>
											<linkclipref>clipitem-28052</linkclipref>
											<mediatype>audio</mediatype>
											<trackindex>2</trackindex>
											<clipindex>2</clipindex>
											<groupindex>1</groupindex>
										</link>
										<logginginfo>
											<description></description>
											<scene>1</scene>
											<shottake></shottake>
											<lognote></lognote>
										</logginginfo>
										<labels>
											<label2>Iris</label2>
										</labels>
									</clipitem>
									<clipitem id="clipitem-28053" premiereChannelType="stereo">
										<masterclipid>masterclip-2415</masterclipid>
										<name>Excuse Me - 00035_1.mxf</name>
										<enabled>TRUE</enabled>
										<duration>780</duration>
										<rate>
											<timebase>25</timebase>
											<ntsc>FALSE</ntsc>
										</rate>
										<start>117</start>
										<end>144</end>
										<in>496</in>
										<out>523</out>
										<pproTicksIn>5039677440000</pproTicksIn>
										<pproTicksOut>5314014720000</pproTicksOut>
										<file id="file-2413"/>
										<sourcetrack>
											<mediatype>audio</mediatype>
											<trackindex>2</trackindex>
										</sourcetrack>
										<link>
											<linkclipref>clipitem-28037</linkclipref>
											<mediatype>video</mediatype>
											<trackindex>1</trackindex>
											<clipindex>3</clipindex>
										</link>
										<link>
											<linkclipref>clipitem-28045</linkclipref>
											<mediatype>audio</mediatype>
											<trackindex>1</trackindex>
											<clipindex>3</clipindex>
											<groupindex>1</groupindex>
										</link>
										<link>
											<linkclipref>clipitem-28053</linkclipref>
											<mediatype>audio</mediatype>
											<trackindex>2</trackindex>
											<clipindex>3</clipindex>
											<groupindex>1</groupindex>
										</link>
										<logginginfo>
											<description></description>
											<scene></scene>
											<shottake></shottake>
											<lognote></lognote>
										</logginginfo>
										<labels>
											<label2>Iris</label2>
										</labels>
									</clipitem>
									<clipitem id="clipitem-28054" premiereChannelType="stereo">
										<masterclipid>masterclip-2412</masterclipid>
										<name>HS Suit - 00017_1.mxf</name>
										<enabled>TRUE</enabled>
										<duration>4628</duration>
										<rate>
											<timebase>25</timebase>
											<ntsc>FALSE</ntsc>
										</rate>
										<start>144</start>
										<end>193</end>
										<in>984</in>
										<out>1033</out>
										<pproTicksIn>9998069760000</pproTicksIn>
										<pproTicksOut>10495941120000</pproTicksOut>
										<file id="file-2410"/>
										<sourcetrack>
											<mediatype>audio</mediatype>
											<trackindex>2</trackindex>
										</sourcetrack>
										<link>
											<linkclipref>clipitem-28038</linkclipref>
											<mediatype>video</mediatype>
											<trackindex>1</trackindex>
											<clipindex>4</clipindex>
										</link>
										<link>
											<linkclipref>clipitem-28046</linkclipref>
											<mediatype>audio</mediatype>
											<trackindex>1</trackindex>
											<clipindex>4</clipindex>
											<groupindex>1</groupindex>
										</link>
										<link>
											<linkclipref>clipitem-28054</linkclipref>
											<mediatype>audio</mediatype>
											<trackindex>2</trackindex>
											<clipindex>4</clipindex>
											<groupindex>1</groupindex>
										</link>
										<logginginfo>
											<description></description>
											<scene>1</scene>
											<shottake></shottake>
											<lognote></lognote>
										</logginginfo>
										<labels>
											<label2>Iris</label2>
										</labels>
									</clipitem>
									<clipitem id="clipitem-28055" premiereChannelType="stereo">
										<masterclipid>masterclip-2415</masterclipid>
										<name>Excuse Me - 00035_1.mxf</name>
										<enabled>TRUE</enabled>
										<duration>780</duration>
										<rate>
											<timebase>25</timebase>
											<ntsc>FALSE</ntsc>
										</rate>
										<start>193</start>
										<end>230</end>
										<in>572</in>
										<out>609</out>
										<pproTicksIn>5811886080000</pproTicksIn>
										<pproTicksOut>6187829760000</pproTicksOut>
										<file id="file-2413"/>
										<sourcetrack>
											<mediatype>audio</mediatype>
											<trackindex>2</trackindex>
										</sourcetrack>
										<link>
											<linkclipref>clipitem-28039</linkclipref>
											<mediatype>video</mediatype>
											<trackindex>1</trackindex>
											<clipindex>5</clipindex>
										</link>
										<link>
											<linkclipref>clipitem-28047</linkclipref>
											<mediatype>audio</mediatype>
											<trackindex>1</trackindex>
											<clipindex>5</clipindex>
											<groupindex>1</groupindex>
										</link>
										<link>
											<linkclipref>clipitem-28055</linkclipref>
											<mediatype>audio</mediatype>
											<trackindex>2</trackindex>
											<clipindex>5</clipindex>
											<groupindex>1</groupindex>
										</link>
										<logginginfo>
											<description></description>
											<scene></scene>
											<shottake></shottake>
											<lognote></lognote>
										</logginginfo>
										<labels>
											<label2>Iris</label2>
										</labels>
									</clipitem>
									<clipitem id="clipitem-28056" premiereChannelType="stereo">
										<masterclipid>masterclip-2413</masterclipid>
										<name>Mid John - 00028_1.mxf</name>
										<enabled>TRUE</enabled>
										<duration>4641</duration>
										<rate>
											<timebase>25</timebase>
											<ntsc>FALSE</ntsc>
										</rate>
										<start>230</start>
										<end>350</end>
										<in>729</in>
										<out>849</out>
										<pproTicksIn>7407106560000</pproTicksIn>
										<pproTicksOut>8626383360000</pproTicksOut>
										<file id="file-2411"/>
										<sourcetrack>
											<mediatype>audio</mediatype>
											<trackindex>2</trackindex>
										</sourcetrack>
										<link>
											<linkclipref>clipitem-28040</linkclipref>
											<mediatype>video</mediatype>
											<trackindex>1</trackindex>
											<clipindex>6</clipindex>
										</link>
										<link>
											<linkclipref>clipitem-28048</linkclipref>
											<mediatype>audio</mediatype>
											<trackindex>1</trackindex>
											<clipindex>6</clipindex>
											<groupindex>1</groupindex>
										</link>
										<link>
											<linkclipref>clipitem-28056</linkclipref>
											<mediatype>audio</mediatype>
											<trackindex>2</trackindex>
											<clipindex>6</clipindex>
											<groupindex>1</groupindex>
										</link>
										<logginginfo>
											<description></description>
											<scene>1</scene>
											<shottake></shottake>
											<lognote></lognote>
										</logginginfo>
										<labels>
											<label2>Iris</label2>
										</labels>
									</clipitem>
									<clipitem id="clipitem-28057" premiereChannelType="stereo">
										<masterclipid>masterclip-2411</masterclipid>
										<name>Mid Suit - 00008_1.mxf</name>
										<enabled>TRUE</enabled>
										<duration>4706</duration>
										<rate>
											<timebase>25</timebase>
											<ntsc>FALSE</ntsc>
										</rate>
										<start>350</start>
										<end>476</end>
										<in>866</in>
										<out>992</out>
										<pproTicksIn>8799114240000</pproTicksIn>
										<pproTicksOut>10079354880000</pproTicksOut>
										<file id="file-2409"/>
										<sourcetrack>
											<mediatype>audio</mediatype>
											<trackindex>2</trackindex>
										</sourcetrack>
										<link>
											<linkclipref>clipitem-28041</linkclipref>
											<mediatype>video</mediatype>
											<trackindex>1</trackindex>
											<clipindex>7</clipindex>
										</link>
										<link>
											<linkclipref>clipitem-28049</linkclipref>
											<mediatype>audio</mediatype>
											<trackindex>1</trackindex>
											<clipindex>7</clipindex>
											<groupindex>1</groupindex>
										</link>
										<link>
											<linkclipref>clipitem-28057</linkclipref>
											<mediatype>audio</mediatype>
											<trackindex>2</trackindex>
											<clipindex>7</clipindex>
											<groupindex>1</groupindex>
										</link>
										<logginginfo>
											<description></description>
											<scene>1</scene>
											<shottake></shottake>
											<lognote></lognote>
										</logginginfo>
										<labels>
											<label2>Iris</label2>
										</labels>
									</clipitem>
									<clipitem id="clipitem-28058" premiereChannelType="stereo">
										<masterclipid>masterclip-2413</masterclipid>
										<name>Mid John - 00028_1.mxf</name>
										<enabled>TRUE</enabled>
										<duration>4641</duration>
										<rate>
											<timebase>25</timebase>
											<ntsc>FALSE</ntsc>
										</rate>
										<start>476</start>
										<end>657</end>
										<in>849</in>
										<out>1030</out>
										<pproTicksIn>8626383360000</pproTicksIn>
										<pproTicksOut>10465459200000</pproTicksOut>
										<file id="file-2411"/>
										<sourcetrack>
											<mediatype>audio</mediatype>
											<trackindex>2</trackindex>
										</sourcetrack>
										<link>
											<linkclipref>clipitem-28042</linkclipref>
											<mediatype>video</mediatype>
											<trackindex>1</trackindex>
											<clipindex>8</clipindex>
										</link>
										<link>
											<linkclipref>clipitem-28050</linkclipref>
											<mediatype>audio</mediatype>
											<trackindex>1</trackindex>
											<clipindex>8</clipindex>
											<groupindex>1</groupindex>
										</link>
										<link>
											<linkclipref>clipitem-28058</linkclipref>
											<mediatype>audio</mediatype>
											<trackindex>2</trackindex>
											<clipindex>8</clipindex>
											<groupindex>1</groupindex>
										</link>
										<logginginfo>
											<description></description>
											<scene>1</scene>
											<shottake></shottake>
											<lognote></lognote>
										</logginginfo>
										<labels>
											<label2>Iris</label2>
										</labels>
									</clipitem>
									<enabled>TRUE</enabled>
									<locked>FALSE</locked>
									<outputchannelindex>2</outputchannelindex>
								</track>
								<track TL.SQTrackAudioKeyframeStyle="0" TL.SQTrackShy="0" TL.SQTrackExpandedHeight="25" TL.SQTrackExpanded="1" MZ.TrackTargeted="1" PannerCurrentValue="0.5" PannerIsInverted="true" PannerStartKeyframe="-91445760000000000,0.5,0,0,0,0,0,0" PannerName="Balance" currentExplodedTrackIndex="0" totalExplodedTrackCount="2" premiereTrackType="Stereo">
									<enabled>TRUE</enabled>
									<locked>FALSE</locked>
									<outputchannelindex>1</outputchannelindex>
								</track>
								<track TL.SQTrackAudioKeyframeStyle="0" TL.SQTrackShy="0" TL.SQTrackExpandedHeight="25" TL.SQTrackExpanded="1" MZ.TrackTargeted="1" PannerCurrentValue="0.5" PannerIsInverted="true" PannerStartKeyframe="-91445760000000000,0.5,0,0,0,0,0,0" PannerName="Balance" currentExplodedTrackIndex="1" totalExplodedTrackCount="2" premiereTrackType="Stereo">
									<enabled>TRUE</enabled>
									<locked>FALSE</locked>
									<outputchannelindex>2</outputchannelindex>
								</track>
								<track TL.SQTrackAudioKeyframeStyle="0" TL.SQTrackShy="0" TL.SQTrackExpandedHeight="25" TL.SQTrackExpanded="1" MZ.TrackTargeted="1" PannerCurrentValue="0.5" PannerIsInverted="true" PannerStartKeyframe="-91445760000000000,0.5,0,0,0,0,0,0" PannerName="Balance" currentExplodedTrackIndex="0" totalExplodedTrackCount="2" premiereTrackType="Stereo">
									<enabled>TRUE</enabled>
									<locked>FALSE</locked>
									<outputchannelindex>1</outputchannelindex>
								</track>
								<track TL.SQTrackAudioKeyframeStyle="0" TL.SQTrackShy="0" TL.SQTrackExpandedHeight="25" TL.SQTrackExpanded="1" MZ.TrackTargeted="1" PannerCurrentValue="0.5" PannerIsInverted="true" PannerStartKeyframe="-91445760000000000,0.5,0,0,0,0,0,0" PannerName="Balance" currentExplodedTrackIndex="1" totalExplodedTrackCount="2" premiereTrackType="Stereo">
									<enabled>TRUE</enabled>
									<locked>FALSE</locked>
									<outputchannelindex>2</outputchannelindex>
								</track>
							</audio>
						</media>
						<timecode>
							<rate>
								<timebase>25</timebase>
								<ntsc>FALSE</ntsc>
							</rate>
							<string>00:00:00:00</string>
							<frame>0</frame>
							<displayformat>NDF</displayformat>
						</timecode>
						<labels>
							<label2>Forest</label2>
						</labels>
					</sequence>
				</children>
			</bin>
			<bin>
				<name>PSD Files</name>
				<labels>
					<label2>Mango</label2>
				</labels>
				<children>
					<clip id="masterclip-2421" explodedTracks="true">
						<uuid>ec170314-caf7-4792-9aaa-09a815f927ef</uuid>
						<masterclipid>masterclip-2421</masterclipid>
						<ismasterclip>TRUE</ismasterclip>
						<duration>150</duration>
						<rate>
							<timebase>30</timebase>
							<ntsc>TRUE</ntsc>
						</rate>
						<in>0</in>
						<out>179</out>
						<name>TU Title BW</name>
						<media>
							<video>
								<track>
									<clipitem id="clipitem-28059">
										<masterclipid>masterclip-2421</masterclipid>
										<name>TU Title BW</name>
										<rate>
											<timebase>30</timebase>
											<ntsc>TRUE</ntsc>
										</rate>
										<alphatype>straight</alphatype>
										<pixelaspectratio>square</pixelaspectratio>
										<anamorphic>FALSE</anamorphic>
										<file id="file-2419">
											<name>Theft_Unexpected.psd</name>
											<pathurl>file://localhost/Users/fgiraffe/Premiere%20Pro%20Tuts/Lessons/Assets/Graphics/Theft_Unexpected.psd</pathurl>
											<rate>
												<timebase>30</timebase>
												<ntsc>TRUE</ntsc>
											</rate>
											<timecode>
												<rate>
													<timebase>30</timebase>
													<ntsc>TRUE</ntsc>
												</rate>
												<string>00:00:00:00</string>
												<frame>0</frame>
												<displayformat>NDF</displayformat>
											</timecode>
											<media>
												<video>
													<samplecharacteristics>
														<rate>
															<timebase>30</timebase>
															<ntsc>TRUE</ntsc>
														</rate>
														<width>1280</width>
														<height>720</height>
														<anamorphic>FALSE</anamorphic>
														<pixelaspectratio>square</pixelaspectratio>
														<fielddominance>none</fielddominance>
													</samplecharacteristics>
												</video>
											</media>
										</file>
									</clipitem>
								</track>
							</video>
						</media>
						<logginginfo>
							<description></description>
							<scene></scene>
							<shottake></shottake>
							<lognote></lognote>
						</logginginfo>
						<labels>
							<label2>Lavender</label2>
						</labels>
					</clip>
					<bin>
						<name>Theft_Unexpected_Layered</name>
						<labels>
							<label2>Mango</label2>
						</labels>
						<children>
							<clip id="masterclip-2422" explodedTracks="true">
								<uuid>eb33a1a4-97a3-4d6e-9f01-0185fc4afc50</uuid>
								<masterclipid>masterclip-2422</masterclipid>
								<ismasterclip>TRUE</ismasterclip>
								<duration>150</duration>
								<rate>
									<timebase>30</timebase>
									<ntsc>TRUE</ntsc>
								</rate>
								<in>0</in>
								<out>179</out>
								<name>THEFT/Theft_Unexpected_Layered.psd</name>
								<media>
									<video>
										<track>
											<clipitem id="clipitem-28060">
												<masterclipid>masterclip-2422</masterclipid>
												<name>THEFT/Theft_Unexpected_Layered.psd</name>
												<rate>
													<timebase>30</timebase>
													<ntsc>TRUE</ntsc>
												</rate>
												<alphatype>straight</alphatype>
												<pixelaspectratio>square</pixelaspectratio>
												<anamorphic>FALSE</anamorphic>
												<file id="file-2420">
													<name>THEFT/Theft_Unexpected_Layered.psd</name>
													<pathurl>file://localhost/Users/fgiraffe/Premiere%20Pro%20Tuts/Lessons/Assets/Graphics/Theft_Unexpected_Layered.psd</pathurl>
													<rate>
														<timebase>30</timebase>
														<ntsc>TRUE</ntsc>
													</rate>
													<timecode>
														<rate>
															<timebase>30</timebase>
															<ntsc>TRUE</ntsc>
														</rate>
														<string>00:00:00:00</string>
														<frame>0</frame>
														<displayformat>NDF</displayformat>
													</timecode>
													<media>
														<video>
															<samplecharacteristics>
																<rate>
																	<timebase>30</timebase>
																	<ntsc>TRUE</ntsc>
																</rate>
																<width>1280</width>
																<height>720</height>
																<anamorphic>FALSE</anamorphic>
																<pixelaspectratio>square</pixelaspectratio>
																<fielddominance>none</fielddominance>
															</samplecharacteristics>
														</video>
													</media>
												</file>
											</clipitem>
										</track>
									</video>
								</media>
								<logginginfo>
									<description></description>
									<scene></scene>
									<shottake></shottake>
									<lognote></lognote>
								</logginginfo>
								<labels>
									<label2>Lavender</label2>
								</labels>
							</clip>
							<clip id="masterclip-2423" explodedTracks="true">
								<uuid>37247d0a-d6b6-4fc7-be7c-f1bb127967e0</uuid>
								<masterclipid>masterclip-2423</masterclipid>
								<ismasterclip>TRUE</ismasterclip>
								<duration>150</duration>
								<rate>
									<timebase>30</timebase>
									<ntsc>TRUE</ntsc>
								</rate>
								<in>0</in>
								<out>149</out>
								<name>unexpected/Theft_Unexpected_Layered.psd</name>
								<media>
									<video>
										<track>
											<clipitem id="clipitem-28061">
												<masterclipid>masterclip-2423</masterclipid>
												<name>unexpected/Theft_Unexpected_Layered.psd</name>
												<rate>
													<timebase>30</timebase>
													<ntsc>TRUE</ntsc>
												</rate>
												<alphatype>straight</alphatype>
												<pixelaspectratio>square</pixelaspectratio>
												<anamorphic>FALSE</anamorphic>
												<file id="file-2421">
													<name>THEFT/Theft_Unexpected_Layered.psd</name>
													<pathurl>file://localhost/Users/fgiraffe/Premiere%20Pro%20Tuts/Lessons/Assets/Graphics/Theft_Unexpected_Layered.psd</pathurl>
													<rate>
														<timebase>30</timebase>
														<ntsc>TRUE</ntsc>
													</rate>
													<timecode>
														<rate>
															<timebase>30</timebase>
															<ntsc>TRUE</ntsc>
														</rate>
														<string>00:00:00:00</string>
														<frame>0</frame>
														<displayformat>NDF</displayformat>
													</timecode>
													<media>
														<video>
															<samplecharacteristics>
																<rate>
																	<timebase>30</timebase>
																	<ntsc>TRUE</ntsc>
																</rate>
																<width>1280</width>
																<height>720</height>
																<anamorphic>FALSE</anamorphic>
																<pixelaspectratio>square</pixelaspectratio>
																<fielddominance>none</fielddominance>
															</samplecharacteristics>
														</video>
													</media>
												</file>
											</clipitem>
										</track>
									</video>
								</media>
								<logginginfo>
									<description></description>
									<scene></scene>
									<shottake></shottake>
									<lognote></lognote>
								</logginginfo>
								<labels>
									<label2>Lavender</label2>
								</labels>
							</clip>
							<clip id="masterclip-2424" explodedTracks="true">
								<uuid>b5def82b-0586-46fb-bf70-8cdb8567f614</uuid>
								<masterclipid>masterclip-2424</masterclipid>
								<ismasterclip>TRUE</ismasterclip>
								<duration>150</duration>
								<rate>
									<timebase>30</timebase>
									<ntsc>TRUE</ntsc>
								</rate>
								<in>0</in>
								<out>149</out>
								<name>Stroke/Theft_Unexpected_Layered.psd</name>
								<media>
									<video>
										<track>
											<clipitem id="clipitem-28062">
												<masterclipid>masterclip-2424</masterclipid>
												<name>Stroke/Theft_Unexpected_Layered.psd</name>
												<rate>
													<timebase>30</timebase>
													<ntsc>TRUE</ntsc>
												</rate>
												<alphatype>straight</alphatype>
												<pixelaspectratio>square</pixelaspectratio>
												<anamorphic>FALSE</anamorphic>
												<file id="file-2422">
													<name>THEFT/Theft_Unexpected_Layered.psd</name>
													<pathurl>file://localhost/Users/fgiraffe/Premiere%20Pro%20Tuts/Lessons/Assets/Graphics/Theft_Unexpected_Layered.psd</pathurl>
													<rate>
														<timebase>30</timebase>
														<ntsc>TRUE</ntsc>
													</rate>
													<timecode>
														<rate>
															<timebase>30</timebase>
															<ntsc>TRUE</ntsc>
														</rate>
														<string>00:00:00:00</string>
														<frame>0</frame>
														<displayformat>NDF</displayformat>
													</timecode>
													<media>
														<video>
															<samplecharacteristics>
																<rate>
																	<timebase>30</timebase>
																	<ntsc>TRUE</ntsc>
																</rate>
																<width>1280</width>
																<height>720</height>
																<anamorphic>FALSE</anamorphic>
																<pixelaspectratio>square</pixelaspectratio>
																<fielddominance>none</fielddominance>
															</samplecharacteristics>
														</video>
													</media>
												</file>
											</clipitem>
										</track>
									</video>
								</media>
								<logginginfo>
									<description></description>
									<scene></scene>
									<shottake></shottake>
									<lognote></lognote>
								</logginginfo>
								<labels>
									<label2>Lavender</label2>
								</labels>
							</clip>
							<clip id="masterclip-2425" explodedTracks="true">
								<uuid>2f564cc7-dc22-4c36-9f69-baff0b51bce5</uuid>
								<masterclipid>masterclip-2425</masterclipid>
								<ismasterclip>TRUE</ismasterclip>
								<duration>150</duration>
								<rate>
									<timebase>30</timebase>
									<ntsc>TRUE</ntsc>
								</rate>
								<in>0</in>
								<out>149</out>
								<name>Background/Theft_Unexpected_Layered.psd</name>
								<media>
									<video>
										<track>
											<clipitem id="clipitem-28063">
												<masterclipid>masterclip-2425</masterclipid>
												<name>Background/Theft_Unexpected_Layered.psd</name>
												<rate>
													<timebase>30</timebase>
													<ntsc>TRUE</ntsc>
												</rate>
												<alphatype>straight</alphatype>
												<pixelaspectratio>square</pixelaspectratio>
												<anamorphic>FALSE</anamorphic>
												<file id="file-2423">
													<name>THEFT/Theft_Unexpected_Layered.psd</name>
													<pathurl>file://localhost/Users/fgiraffe/Premiere%20Pro%20Tuts/Lessons/Assets/Graphics/Theft_Unexpected_Layered.psd</pathurl>
													<rate>
														<timebase>30</timebase>
														<ntsc>TRUE</ntsc>
													</rate>
													<timecode>
														<rate>
															<timebase>30</timebase>
															<ntsc>TRUE</ntsc>
														</rate>
														<string>00:00:00:00</string>
														<frame>0</frame>
														<displayformat>NDF</displayformat>
													</timecode>
													<media>
														<video>
															<samplecharacteristics>
																<rate>
																	<timebase>30</timebase>
																	<ntsc>TRUE</ntsc>
																</rate>
																<width>1280</width>
																<height>720</height>
																<anamorphic>FALSE</anamorphic>
																<pixelaspectratio>square</pixelaspectratio>
																<fielddominance>none</fielddominance>
															</samplecharacteristics>
														</video>
													</media>
												</file>
											</clipitem>
										</track>
									</video>
								</media>
								<logginginfo>
									<description></description>
									<scene></scene>
									<shottake></shottake>
									<lognote></lognote>
								</logginginfo>
								<labels>
									<label2>Lavender</label2>
								</labels>
							</clip>
							<sequence id="sequence-56" MZ.Sequence.PreviewFrameSizeHeight="720" MZ.Sequence.PreviewFrameSizeWidth="1280" MZ.Sequence.AudioTimeDisplayFormat="200" MZ.Sequence.PreviewRenderingClassID="1297106761" MZ.Sequence.PreviewRenderingPresetCodec="1297107278" MZ.Sequence.PreviewRenderingPresetPath="EncoderPresets/SequencePreview/795454d9-d3c2-429d-9474-923ab13b7018/I-Frame Only MPEG.epr" MZ.Sequence.PreviewUseMaxBitDepth="false" MZ.Sequence.EditingModeGUID="795454d9-d3c2-429d-9474-923ab13b7018" MZ.Sequence.VideoTimeDisplayFormat="110" explodedTracks="true">
								<uuid>991fd8c1-8074-4021-98c0-42fde7c9d90b</uuid>
								<duration>144</duration>
								<rate>
									<timebase>24</timebase>
									<ntsc>TRUE</ntsc>
								</rate>
								<name>Theft_Unexpected_Layered</name>
								<media>
									<video>
										<format>
											<samplecharacteristics>
												<rate>
													<timebase>24</timebase>
													<ntsc>TRUE</ntsc>
												</rate>
												<codec>
													<name>Apple ProRes 422</name>
													<appspecificdata>
														<appname>Final Cut Pro</appname>
														<appmanufacturer>Apple Inc.</appmanufacturer>
														<appversion>7.0</appversion>
														<data>
															<qtcodec>
																<codecname>Apple ProRes 422</codecname>
																<codectypename>Apple ProRes 422</codectypename>
																<codectypecode>apcn</codectypecode>
																<codecvendorcode>appl</codecvendorcode>
																<spatialquality>1024</spatialquality>
																<temporalquality>0</temporalquality>
																<keyframerate>0</keyframerate>
																<datarate>0</datarate>
															</qtcodec>
														</data>
													</appspecificdata>
												</codec>
												<width>1280</width>
												<height>720</height>
												<anamorphic>FALSE</anamorphic>
												<pixelaspectratio>square</pixelaspectratio>
												<fielddominance>none</fielddominance>
												<colordepth>24</colordepth>
											</samplecharacteristics>
										</format>
										<track MZ.TrackTargeted="1" MZ.TrackName="Background/Theft_Unexpected_Layered.psd">
											<clipitem id="clipitem-28064">
												<masterclipid>masterclip-2425</masterclipid>
												<name>Background/Theft_Unexpected_Layered.psd</name>
												<enabled>TRUE</enabled>
												<duration>1035764</duration>
												<rate>
													<timebase>24</timebase>
													<ntsc>TRUE</ntsc>
												</rate>
												<start>0</start>
												<end>144</end>
												<in>86313</in>
												<out>86457</out>
												<pproTicksIn>914450328792000</pproTicksIn>
												<pproTicksOut>915975948888000</pproTicksOut>
												<alphatype>straight</alphatype>
												<file id="file-2423"/>
												<logginginfo>
													<description></description>
													<scene></scene>
													<shottake></shottake>
													<lognote></lognote>
												</logginginfo>
												<labels>
													<label2>Lavender</label2>
												</labels>
											</clipitem>
											<enabled>TRUE</enabled>
											<locked>FALSE</locked>
										</track>
										<track MZ.TrackTargeted="0" MZ.TrackName="Stroke/Theft_Unexpected_Layered.psd">
											<clipitem id="clipitem-28065">
												<masterclipid>masterclip-2424</masterclipid>
												<name>Stroke/Theft_Unexpected_Layered.psd</name>
												<enabled>TRUE</enabled>
												<duration>1035764</duration>
												<rate>
													<timebase>24</timebase>
													<ntsc>TRUE</ntsc>
												</rate>
												<start>0</start>
												<end>144</end>
												<in>86313</in>
												<out>86457</out>
												<pproTicksIn>914450328792000</pproTicksIn>
												<pproTicksOut>915975948888000</pproTicksOut>
												<alphatype>straight</alphatype>
												<file id="file-2422"/>
												<logginginfo>
													<description></description>
													<scene></scene>
													<shottake></shottake>
													<lognote></lognote>
												</logginginfo>
												<labels>
													<label2>Lavender</label2>
												</labels>
											</clipitem>
											<enabled>TRUE</enabled>
											<locked>FALSE</locked>
										</track>
										<track MZ.TrackTargeted="0" MZ.TrackName="unexpected/Theft_Unexpected_Layered.psd">
											<clipitem id="clipitem-28066">
												<masterclipid>masterclip-2423</masterclipid>
												<name>unexpected/Theft_Unexpected_Layered.psd</name>
												<enabled>TRUE</enabled>
												<duration>1035764</duration>
												<rate>
													<timebase>24</timebase>
													<ntsc>TRUE</ntsc>
												</rate>
												<start>0</start>
												<end>144</end>
												<in>86313</in>
												<out>86457</out>
												<pproTicksIn>914450328792000</pproTicksIn>
												<pproTicksOut>915975948888000</pproTicksOut>
												<alphatype>straight</alphatype>
												<file id="file-2421"/>
												<logginginfo>
													<description></description>
													<scene></scene>
													<shottake></shottake>
													<lognote></lognote>
												</logginginfo>
												<labels>
													<label2>Lavender</label2>
												</labels>
											</clipitem>
											<enabled>TRUE</enabled>
											<locked>FALSE</locked>
										</track>
										<track MZ.TrackTargeted="0" MZ.TrackName="THEFT/Theft_Unexpected_Layered.psd">
											<clipitem id="clipitem-28067">
												<masterclipid>masterclip-2422</masterclipid>
												<name>THEFT/Theft_Unexpected_Layered.psd</name>
												<enabled>TRUE</enabled>
												<duration>1035764</duration>
												<rate>
													<timebase>24</timebase>
													<ntsc>TRUE</ntsc>
												</rate>
												<start>0</start>
												<end>144</end>
												<in>86313</in>
												<out>86457</out>
												<pproTicksIn>914450328792000</pproTicksIn>
												<pproTicksOut>915975948888000</pproTicksOut>
												<alphatype>straight</alphatype>
												<file id="file-2420"/>
												<logginginfo>
													<description></description>
													<scene></scene>
													<shottake></shottake>
													<lognote></lognote>
												</logginginfo>
												<labels>
													<label2>Lavender</label2>
												</labels>
											</clipitem>
											<enabled>TRUE</enabled>
											<locked>FALSE</locked>
										</track>
									</video>
									<audio>
										<numOutputChannels>2</numOutputChannels>
										<format>
											<samplecharacteristics>
												<depth>16</depth>
												<samplerate>48000</samplerate>
											</samplecharacteristics>
										</format>
										<outputs>
											<group>
												<index>1</index>
												<numchannels>1</numchannels>
												<downmix>0</downmix>
												<channel>
													<index>1</index>
												</channel>
											</group>
											<group>
												<index>2</index>
												<numchannels>1</numchannels>
												<downmix>0</downmix>
												<channel>
													<index>2</index>
												</channel>
											</group>
										</outputs>
										<track MZ.TrackTargeted="1" PannerCurrentValue="0.5" PannerIsInverted="true" PannerStartKeyframe="-91445760000000000,0.5,0,0,0,0,0,0" PannerName="Balance" currentExplodedTrackIndex="0" totalExplodedTrackCount="2" premiereTrackType="Stereo">
											<enabled>TRUE</enabled>
											<locked>FALSE</locked>
											<outputchannelindex>1</outputchannelindex>
										</track>
										<track MZ.TrackTargeted="1" PannerCurrentValue="0.5" PannerIsInverted="true" PannerStartKeyframe="-91445760000000000,0.5,0,0,0,0,0,0" PannerName="Balance" currentExplodedTrackIndex="1" totalExplodedTrackCount="2" premiereTrackType="Stereo">
											<enabled>TRUE</enabled>
											<locked>FALSE</locked>
											<outputchannelindex>2</outputchannelindex>
										</track>
									</audio>
								</media>
								<timecode>
									<rate>
										<timebase>24</timebase>
										<ntsc>TRUE</ntsc>
									</rate>
									<string>00:00:00:00</string>
									<frame>0</frame>
									<displayformat>NDF</displayformat>
								</timecode>
								<labels>
									<label2>Forest</label2>
								</labels>
							</sequence>
						</children>
					</bin>
				</children>
			</bin>
			<bin>
				<name>Illustrator Files</name>
				<labels>
					<label2>Mango</label2>
				</labels>
				<children>
					<clip id="masterclip-2426" explodedTracks="true">
						<uuid>bf222073-620b-4e98-b335-7172bfe564d9</uuid>
						<masterclipid>masterclip-2426</masterclipid>
						<ismasterclip>TRUE</ismasterclip>
						<duration>150</duration>
						<rate>
							<timebase>30</timebase>
							<ntsc>TRUE</ntsc>
						</rate>
						<in>0</in>
						<out>179</out>
						<name>Brightlove_film_logo.ai</name>
						<media>
							<video>
								<track>
									<clipitem id="clipitem-28068">
										<masterclipid>masterclip-2426</masterclipid>
										<name>Brightlove_film_logo.ai</name>
										<rate>
											<timebase>30</timebase>
											<ntsc>TRUE</ntsc>
										</rate>
										<alphatype>straight</alphatype>
										<pixelaspectratio>square</pixelaspectratio>
										<anamorphic>FALSE</anamorphic>
										<file id="file-2424">
											<name>Brightlove_film_logo.ai</name>
											<pathurl>file://localhost/Users/fgiraffe/Premiere%20Pro%20Tuts/Lessons/Assets/Graphics/Brightlove_film_logo.ai</pathurl>
											<rate>
												<timebase>30</timebase>
												<ntsc>TRUE</ntsc>
											</rate>
											<timecode>
												<rate>
													<timebase>30</timebase>
													<ntsc>TRUE</ntsc>
												</rate>
												<string>00:00:00:00</string>
												<frame>0</frame>
												<displayformat>NDF</displayformat>
											</timecode>
											<media>
												<video>
													<samplecharacteristics>
														<rate>
															<timebase>30</timebase>
															<ntsc>TRUE</ntsc>
														</rate>
														<width>925</width>
														<height>499</height>
														<anamorphic>FALSE</anamorphic>
														<pixelaspectratio>square</pixelaspectratio>
														<fielddominance>none</fielddominance>
													</samplecharacteristics>
												</video>
											</media>
										</file>
									</clipitem>
								</track>
							</video>
						</media>
						<logginginfo>
							<description></description>
							<scene></scene>
							<shottake></shottake>
							<lognote></lognote>
						</logginginfo>
						<labels>
							<label2>Lavender</label2>
						</labels>
					</clip>
				</children>
			</bin>
			<bin>
				<name>City Views</name>
				<labels>
					<label2>Mango</label2>
				</labels>
				<children>
					<clip id="masterclip-2427" explodedTracks="true">
						<uuid>16ba3db0-2e46-4d96-bde5-19e3019d0802</uuid>
						<masterclipid>masterclip-2427</masterclipid>
						<ismasterclip>TRUE</ismasterclip>
						<duration>796</duration>
						<rate>
							<timebase>24</timebase>
							<ntsc>TRUE</ntsc>
						</rate>
						<name>Seattle_Skyline.mov</name>
						<media>
							<video>
								<track>
									<clipitem id="clipitem-28069">
										<masterclipid>masterclip-2427</masterclipid>
										<name>Seattle_Skyline.mov</name>
										<rate>
											<timebase>24</timebase>
											<ntsc>TRUE</ntsc>
										</rate>
										<alphatype>none</alphatype>
										<pixelaspectratio>square</pixelaspectratio>
										<anamorphic>FALSE</anamorphic>
										<file id="file-2425">
											<name>Seattle_Skyline.mov</name>
											<pathurl>file://localhost/Users/fgiraffe/Premiere%20Pro%20Tuts/Lessons/Assets/Video%20and%20Audio%20Files/General%20Views/Seattle_Skyline.mov</pathurl>
											<rate>
												<timebase>24</timebase>
												<ntsc>TRUE</ntsc>
											</rate>
											<duration>796</duration>
											<timecode>
												<rate>
													<timebase>24</timebase>
													<ntsc>TRUE</ntsc>
												</rate>
												<string>00:00:00:00</string>
												<frame>0</frame>
												<displayformat>NDF</displayformat>
											</timecode>
											<media>
												<video>
													<samplecharacteristics>
														<rate>
															<timebase>24</timebase>
															<ntsc>TRUE</ntsc>
														</rate>
														<width>1280</width>
														<height>720</height>
														<anamorphic>FALSE</anamorphic>
														<pixelaspectratio>square</pixelaspectratio>
														<fielddominance>none</fielddominance>
													</samplecharacteristics>
												</video>
											</media>
										</file>
									</clipitem>
								</track>
							</video>
						</media>
							<marker>
								<comment></comment>
								<name></name>
								<in>271</in>
								<out>-1</out>
							</marker>
							<marker>
								<comment></comment>
								<name></name>
								<in>286</in>
								<out>-1</out>
							</marker>
							<marker>
								<comment></comment>
								<name></name>
								<in>280</in>
								<out>-1</out>
							</marker>
							<marker>
								<comment></comment>
								<name></name>
								<in>289</in>
								<out>-1</out>
							</marker>
						<logginginfo>
							<description></description>
							<scene></scene>
							<shottake></shottake>
							<lognote></lognote>
						</logginginfo>
						<labels>
							<label2>Violet</label2>
						</labels>
					</clip>
					<clip id="masterclip-2428" explodedTracks="true">
						<uuid>26e0bb08-1462-4a98-b691-72f997bb3b67</uuid>
						<masterclipid>masterclip-2428</masterclipid>
						<ismasterclip>TRUE</ismasterclip>
						<duration>240</duration>
						<rate>
							<timebase>30</timebase>
							<ntsc>TRUE</ntsc>
						</rate>
						<name>Under Basket.MOV</name>
						<media>
							<video>
								<track>
									<clipitem id="clipitem-28070">
										<masterclipid>masterclip-2428</masterclipid>
										<name>Under Basket.MOV</name>
										<rate>
											<timebase>30</timebase>
											<ntsc>TRUE</ntsc>
										</rate>
										<alphatype>none</alphatype>
										<pixelaspectratio>square</pixelaspectratio>
										<anamorphic>FALSE</anamorphic>
										<file id="file-2426">
											<name>Under Basket.MOV</name>
											<pathurl>file://localhost/Users/fgiraffe/Premiere%20Pro%20Tuts/Lessons/Assets/Video%20and%20Audio%20Files/Basketball/Under%20Basket.MOV</pathurl>
											<rate>
												<timebase>30</timebase>
												<ntsc>TRUE</ntsc>
											</rate>
											<duration>240</duration>
											<timecode>
												<rate>
													<timebase>30</timebase>
													<ntsc>TRUE</ntsc>
												</rate>
												<string>00:00:00:00</string>
												<frame>0</frame>
												<displayformat>NDF</displayformat>
											</timecode>
											<media>
												<video>
													<samplecharacteristics>
														<rate>
															<timebase>30</timebase>
															<ntsc>TRUE</ntsc>
														</rate>
														<width>1280</width>
														<height>720</height>
														<anamorphic>FALSE</anamorphic>
														<pixelaspectratio>square</pixelaspectratio>
														<fielddominance>none</fielddominance>
													</samplecharacteristics>
												</video>
												<audio>
													<samplecharacteristics>
														<depth>16</depth>
														<samplerate>48000</samplerate>
													</samplecharacteristics>
													<channelcount>2</channelcount>
												</audio>
											</media>
										</file>
										<link>
											<linkclipref>clipitem-28070</linkclipref>
											<mediatype>video</mediatype>
											<trackindex>1</trackindex>
											<clipindex>1</clipindex>
										</link>
										<link>
											<linkclipref>clipitem-28071</linkclipref>
											<mediatype>audio</mediatype>
											<trackindex>1</trackindex>
											<clipindex>1</clipindex>
											<groupindex>1</groupindex>
										</link>
										<link>
											<linkclipref>clipitem-28072</linkclipref>
											<mediatype>audio</mediatype>
											<trackindex>2</trackindex>
											<clipindex>1</clipindex>
											<groupindex>1</groupindex>
										</link>
									</clipitem>
								</track>
							</video>
							<audio>
								<track>
									<clipitem id="clipitem-28071">
										<masterclipid>masterclip-2428</masterclipid>
										<name>Under Basket.MOV</name>
										<rate>
											<timebase>30</timebase>
											<ntsc>TRUE</ntsc>
										</rate>
										<file id="file-2426"/>
										<sourcetrack>
											<mediatype>audio</mediatype>
											<trackindex>1</trackindex>
										</sourcetrack>
										<link>
											<linkclipref>clipitem-28070</linkclipref>
											<mediatype>video</mediatype>
											<trackindex>1</trackindex>
											<clipindex>1</clipindex>
										</link>
										<link>
											<linkclipref>clipitem-28071</linkclipref>
											<mediatype>audio</mediatype>
											<trackindex>1</trackindex>
											<clipindex>1</clipindex>
											<groupindex>1</groupindex>
										</link>
										<link>
											<linkclipref>clipitem-28072</linkclipref>
											<mediatype>audio</mediatype>
											<trackindex>2</trackindex>
											<clipindex>1</clipindex>
											<groupindex>1</groupindex>
										</link>
									</clipitem>
								</track>
								<track>
									<clipitem id="clipitem-28072">
										<masterclipid>masterclip-2428</masterclipid>
										<name>Under Basket.MOV</name>
										<rate>
											<timebase>30</timebase>
											<ntsc>TRUE</ntsc>
										</rate>
										<file id="file-2426"/>
										<sourcetrack>
											<mediatype>audio</mediatype>
											<trackindex>2</trackindex>
										</sourcetrack>
										<link>
											<linkclipref>clipitem-28070</linkclipref>
											<mediatype>video</mediatype>
											<trackindex>1</trackindex>
											<clipindex>1</clipindex>
										</link>
										<link>
											<linkclipref>clipitem-28071</linkclipref>
											<mediatype>audio</mediatype>
											<trackindex>1</trackindex>
											<clipindex>1</clipindex>
											<groupindex>1</groupindex>
										</link>
										<link>
											<linkclipref>clipitem-28072</linkclipref>
											<mediatype>audio</mediatype>
											<trackindex>2</trackindex>
											<clipindex>1</clipindex>
											<groupindex>1</groupindex>
										</link>
									</clipitem>
								</track>
							</audio>
						</media>
						<logginginfo>
							<description></description>
							<scene></scene>
							<shottake></shottake>
							<lognote></lognote>
						</logginginfo>
						<labels>
							<label2>Iris</label2>
						</labels>
					</clip>
				</children>
			</bin>
			<bin>
				<name>Sequences</name>
				<labels>
					<label2>Mango</label2>
				</labels>
				<children>
					<sequence id="sequence-57" TL.SQAudioVisibleBase="0" TL.SQVideoVisibleBase="0" TL.SQVisibleBaseTime="0" TL.SQAVDividerPosition="0.5" TL.SQHideShyTracks="0" TL.SQHeaderWidth="184" Monitor.ProgramZoomOut="0" Monitor.ProgramZoomIn="0" TL.SQTimePerPixel="0.2" MZ.EditLine="0" MZ.Sequence.PreviewFrameSizeHeight="720" MZ.Sequence.PreviewFrameSizeWidth="960" MZ.Sequence.AudioTimeDisplayFormat="200" MZ.Sequence.PreviewRenderingClassID="1345473880" MZ.Sequence.PreviewRenderingPresetCodec="1685483063" MZ.Sequence.PreviewRenderingPresetPath="EncoderPresets/SequencePreview/079a6181-acbf-4a6f-b1f2-fb44555a69e0/P2 720p 60Hz DVCPROHD.epr" MZ.Sequence.PreviewUseMaxRenderQuality="false" MZ.Sequence.PreviewUseMaxBitDepth="false" MZ.Sequence.EditingModeGUID="079a6181-acbf-4a6f-b1f2-fb44555a69e0" MZ.Sequence.VideoTimeDisplayFormat="110" MZ.WorkOutPoint="0" MZ.WorkInPoint="0" explodedTracks="true">
						<uuid>3ffaee28-1455-4daa-9f94-b561a7d60ccf</uuid>
						<duration>0</duration>
						<rate>
							<timebase>24</timebase>
							<ntsc>TRUE</ntsc>
						</rate>
						<name>First Sequence</name>
						<media>
							<video>
								<format>
									<samplecharacteristics>
										<rate>
											<timebase>24</timebase>
											<ntsc>TRUE</ntsc>
										</rate>
										<codec>
											<name>Apple ProRes 422</name>
											<appspecificdata>
												<appname>Final Cut Pro</appname>
												<appmanufacturer>Apple Inc.</appmanufacturer>
												<appversion>7.0</appversion>
												<data>
													<qtcodec>
														<codecname>Apple ProRes 422</codecname>
														<codectypename>Apple ProRes 422</codectypename>
														<codectypecode>apcn</codectypecode>
														<codecvendorcode>appl</codecvendorcode>
														<spatialquality>1024</spatialquality>
														<temporalquality>0</temporalquality>
														<keyframerate>0</keyframerate>
														<datarate>0</datarate>
													</qtcodec>
												</data>
											</appspecificdata>
										</codec>
										<width>960</width>
										<height>720</height>
										<anamorphic>FALSE</anamorphic>
										<pixelaspectratio>HD-(960x720)</pixelaspectratio>
										<fielddominance>none</fielddominance>
										<colordepth>24</colordepth>
									</samplecharacteristics>
								</format>
								<track TL.SQTrackShy="0" TL.SQTrackExpandedHeight="45" TL.SQTrackExpanded="1" TL.SQTrackVideoKeyframeStyle="0" TL.SQTrackVideoDisplayStyle="1" MZ.TrackTargeted="1">
									<enabled>TRUE</enabled>
									<locked>FALSE</locked>
								</track>
								<track TL.SQTrackShy="0" TL.SQTrackCollapsedHeight="25" TL.SQTrackExpandedHeight="25" TL.SQTrackExpanded="0" TL.SQTrackVideoKeyframeStyle="0" TL.SQTrackVideoDisplayStyle="1" MZ.TrackTargeted="0">
									<enabled>TRUE</enabled>
									<locked>FALSE</locked>
								</track>
								<track TL.SQTrackShy="0" TL.SQTrackCollapsedHeight="25" TL.SQTrackExpandedHeight="25" TL.SQTrackExpanded="0" TL.SQTrackVideoKeyframeStyle="0" TL.SQTrackVideoDisplayStyle="1" MZ.TrackTargeted="0">
									<enabled>TRUE</enabled>
									<locked>FALSE</locked>
								</track>
							</video>
							<audio>
								<numOutputChannels>2</numOutputChannels>
								<format>
									<samplecharacteristics>
										<depth>16</depth>
										<samplerate>48000</samplerate>
									</samplecharacteristics>
								</format>
								<outputs>
									<group>
										<index>1</index>
										<numchannels>1</numchannels>
										<downmix>0</downmix>
										<channel>
											<index>1</index>
										</channel>
									</group>
									<group>
										<index>2</index>
										<numchannels>1</numchannels>
										<downmix>0</downmix>
										<channel>
											<index>2</index>
										</channel>
									</group>
								</outputs>
								<track TL.SQTrackAudioKeyframeStyle="0" TL.SQTrackAudioDisplayStyle="0" TL.SQTrackShy="0" TL.SQTrackCollapsedHeight="25" TL.SQTrackExpandedHeight="25" TL.SQTrackExpanded="0" MZ.TrackTargeted="1" PannerCurrentValue="0.5" PannerIsInverted="true" PannerStartKeyframe="-91445760000000000,0.5,0,0,0,0,0,0" PannerName="Balance" currentExplodedTrackIndex="0" totalExplodedTrackCount="2" premiereTrackType="Stereo">
									<enabled>TRUE</enabled>
									<locked>FALSE</locked>
									<outputchannelindex>1</outputchannelindex>
								</track>
								<track TL.SQTrackAudioKeyframeStyle="0" TL.SQTrackAudioDisplayStyle="0" TL.SQTrackShy="0" TL.SQTrackCollapsedHeight="25" TL.SQTrackExpandedHeight="25" TL.SQTrackExpanded="0" MZ.TrackTargeted="1" PannerCurrentValue="0.5" PannerIsInverted="true" PannerStartKeyframe="-91445760000000000,0.5,0,0,0,0,0,0" PannerName="Balance" currentExplodedTrackIndex="1" totalExplodedTrackCount="2" premiereTrackType="Stereo">
									<enabled>TRUE</enabled>
									<locked>FALSE</locked>
									<outputchannelindex>2</outputchannelindex>
								</track>
								<track TL.SQTrackAudioKeyframeStyle="0" TL.SQTrackAudioDisplayStyle="0" TL.SQTrackShy="0" TL.SQTrackCollapsedHeight="25" TL.SQTrackExpandedHeight="25" TL.SQTrackExpanded="0" MZ.TrackTargeted="0" PannerCurrentValue="0.5" PannerIsInverted="true" PannerStartKeyframe="-91445760000000000,0.5,0,0,0,0,0,0" PannerName="Balance" currentExplodedTrackIndex="0" totalExplodedTrackCount="2" premiereTrackType="Stereo">
									<enabled>TRUE</enabled>
									<locked>FALSE</locked>
									<outputchannelindex>1</outputchannelindex>
								</track>
								<track TL.SQTrackAudioKeyframeStyle="0" TL.SQTrackAudioDisplayStyle="0" TL.SQTrackShy="0" TL.SQTrackCollapsedHeight="25" TL.SQTrackExpandedHeight="25" TL.SQTrackExpanded="0" MZ.TrackTargeted="0" PannerCurrentValue="0.5" PannerIsInverted="true" PannerStartKeyframe="-91445760000000000,0.5,0,0,0,0,0,0" PannerName="Balance" currentExplodedTrackIndex="1" totalExplodedTrackCount="2" premiereTrackType="Stereo">
									<enabled>TRUE</enabled>
									<locked>FALSE</locked>
									<outputchannelindex>2</outputchannelindex>
								</track>
								<track TL.SQTrackAudioKeyframeStyle="0" TL.SQTrackAudioDisplayStyle="0" TL.SQTrackShy="0" TL.SQTrackCollapsedHeight="25" TL.SQTrackExpandedHeight="25" TL.SQTrackExpanded="0" MZ.TrackTargeted="0" PannerCurrentValue="0.5" PannerIsInverted="true" PannerStartKeyframe="-91445760000000000,0.5,0,0,0,0,0,0" PannerName="Balance" currentExplodedTrackIndex="0" totalExplodedTrackCount="2" premiereTrackType="Stereo">
									<enabled>TRUE</enabled>
									<locked>FALSE</locked>
									<outputchannelindex>1</outputchannelindex>
								</track>
								<track TL.SQTrackAudioKeyframeStyle="0" TL.SQTrackAudioDisplayStyle="0" TL.SQTrackShy="0" TL.SQTrackCollapsedHeight="25" TL.SQTrackExpandedHeight="25" TL.SQTrackExpanded="0" MZ.TrackTargeted="0" PannerCurrentValue="0.5" PannerIsInverted="true" PannerStartKeyframe="-91445760000000000,0.5,0,0,0,0,0,0" PannerName="Balance" currentExplodedTrackIndex="1" totalExplodedTrackCount="2" premiereTrackType="Stereo">
									<enabled>TRUE</enabled>
									<locked>FALSE</locked>
									<outputchannelindex>2</outputchannelindex>
								</track>
								<track TL.SQTrackAudioKeyframeStyle="0" TL.SQTrackAudioDisplayStyle="0" TL.SQTrackShy="0" TL.SQTrackCollapsedHeight="25" TL.SQTrackExpandedHeight="25" TL.SQTrackExpanded="0" MZ.TrackTargeted="0" PannerCurrentValue="0.5" PannerIsInverted="true" PannerStartKeyframe="-91445760000000000,0.5,0,0,0,0,0,0" PannerName="Balance" currentExplodedTrackIndex="0" totalExplodedTrackCount="2" premiereTrackType="Stereo">
									<enabled>TRUE</enabled>
									<locked>FALSE</locked>
									<outputchannelindex>1</outputchannelindex>
								</track>
								<track TL.SQTrackAudioKeyframeStyle="0" TL.SQTrackAudioDisplayStyle="0" TL.SQTrackShy="0" TL.SQTrackCollapsedHeight="25" TL.SQTrackExpandedHeight="25" TL.SQTrackExpanded="0" MZ.TrackTargeted="0" PannerCurrentValue="0.5" PannerIsInverted="true" PannerStartKeyframe="-91445760000000000,0.5,0,0,0,0,0,0" PannerName="Balance" currentExplodedTrackIndex="1" totalExplodedTrackCount="2" premiereTrackType="Stereo">
									<enabled>TRUE</enabled>
									<locked>FALSE</locked>
									<outputchannelindex>2</outputchannelindex>
								</track>
							</audio>
						</media>
						<timecode>
							<rate>
								<timebase>24</timebase>
								<ntsc>TRUE</ntsc>
							</rate>
							<string>00:00:00:00</string>
							<frame>0</frame>
							<displayformat>NDF</displayformat>
						</timecode>
						<labels>
							<label2>Forest</label2>
						</labels>
					</sequence>
				</children>
			</bin>
		</children>
	</project>
</xmeml>
